<svg width="20" height="20" viewBox="0 0 20 20" fill="none" xmlns="http://www.w3.org/2000/svg">
<path d="M19.4141 16.4844H19.2188V11.9922C19.2188 11.2383 18.6054 10.625 17.8516 10.625H16.0547V5.79766C16.7367 5.55578 17.2266 4.90449 17.2266 4.14062C17.2266 3.17137 16.438 2.38281 15.4688 2.38281C14.7049 2.38281 14.0536 2.8727 13.8117 3.55469H10.5469V1.36719C10.5469 0.61332 9.93355 0 9.17969 0H2.14844C1.39457 0 0.78125 0.61332 0.78125 1.36719V5.85938H0.585938C0.262344 5.85938 0 6.12172 0 6.44531V6.83594C0 8.23598 1.13902 9.375 2.53906 9.375H3.94531V13.0305C3.26332 13.2723 2.77344 13.9236 2.77344 14.6875C2.77344 15.6568 3.56199 16.4453 4.53125 16.4453C5.29512 16.4453 5.94641 15.9554 6.18828 15.2734H9.45312V16.4844H9.25781C8.93422 16.4844 8.67188 16.7467 8.67188 17.0703V17.4609C8.67188 18.861 9.8109 20 11.2109 20H17.4609C18.861 20 20 18.861 20 17.4609V17.0703C20 16.7467 19.7377 16.4844 19.4141 16.4844ZM15.4688 3.55469C15.7918 3.55469 16.0547 3.81754 16.0547 4.14062C16.0547 4.46371 15.7918 4.72656 15.4688 4.72656C15.1457 4.72656 14.8828 4.46371 14.8828 4.14062C14.8828 3.81754 15.1457 3.55469 15.4688 3.55469ZM1.95312 1.36719C1.95312 1.25949 2.04074 1.17188 2.14844 1.17188H9.17969C9.28738 1.17188 9.375 1.25949 9.375 1.36719V5.85938H1.95312V1.36719ZM1.18578 7.03125H10.1423C10.0473 7.69293 9.47664 8.20312 8.78906 8.20312H2.53906C1.85148 8.20312 1.28086 7.69293 1.18578 7.03125ZM4.53125 15.2734C4.20816 15.2734 3.94531 15.0106 3.94531 14.6875C3.94531 14.3644 4.20816 14.1016 4.53125 14.1016C4.85434 14.1016 5.11719 14.3644 5.11719 14.6875C5.11719 15.0106 4.85434 15.2734 4.53125 15.2734ZM6.18828 14.1016C6.01145 13.603 5.61578 13.2073 5.11719 13.0305V9.375H8.78906C10.1891 9.375 11.3281 8.23598 11.3281 6.83594V6.44531C11.3281 6.12172 11.0658 5.85938 10.7422 5.85938H10.5469V4.72656H13.8117C13.9886 5.22516 14.3842 5.62082 14.8828 5.79766V10.625H10.8203C10.0664 10.625 9.45312 11.2383 9.45312 11.9922V14.1016H6.18828ZM10.625 11.9922C10.625 11.8845 10.7126 11.7969 10.8203 11.7969H17.8516C17.9593 11.7969 18.0469 11.8845 18.0469 11.9922V16.4844H10.625V11.9922ZM17.4609 18.8281H11.2109C10.5234 18.8281 9.95273 18.3179 9.85766 17.6562H18.8142C18.7191 18.3179 18.1485 18.8281 17.4609 18.8281Z" fill="#495057"/>
</svg>
