<svg width="600" height="514" viewBox="0 0 600 514" fill="none" xmlns="http://www.w3.org/2000/svg">
<path opacity="0.4" d="M128.846 427.462L127.778 425.614L299.233 326.627L301.369 327.851L128.846 427.462Z" fill="#D6D8E5"/>
<path opacity="0.4" d="M234.04 225.581L232.972 227.431L495.169 378.81L496.237 376.961L234.04 225.581Z" fill="#D6D8E5"/>
<path opacity="0.4" d="M499.308 270.719L407.604 217.775L499.308 164.832L591.012 217.775L499.308 270.719Z" fill="#D6D8E5"/>
<path d="M588.108 206.075L508.128 159.899L428.161 206.075L416.425 199.307V212.843L508.128 265.787L599.832 212.843V199.307L588.108 206.075Z" fill="#D5D6E0"/>
<path d="M508.128 252.251L416.425 199.307L508.128 146.364L599.832 199.307L508.128 252.251Z" fill="#E9EAF4"/>
<path d="M508.128 87.8997L432.013 43.9438L508.128 0L584.256 43.9438L508.128 87.8997Z" fill="#E9EAF4"/>
<path d="M432.013 43.9441V200.64L508.128 244.595V87.8999L432.013 43.9441Z" fill="#DFE0EA"/>
<path d="M508.128 244.595L584.256 200.64V43.9441L508.128 87.8999V244.595Z" fill="#D5D6E0"/>
<path d="M533.988 107.076L520.812 114.684V99.4676L533.988 91.8596V107.076Z" fill="#2B303F"/>
<path d="M575.76 82.9557L538.008 104.748V89.5317L575.76 67.7397V82.9557Z" fill="#2B303F"/>
<path d="M533.988 129.252L520.812 136.86V121.644L533.988 114.036V129.252Z" fill="#2B303F"/>
<path d="M575.76 105.131L538.008 126.935V111.707L575.76 89.9275V105.131Z" fill="#2B303F"/>
<path d="M533.988 151.427L520.812 159.035V143.819L533.988 136.211V151.427Z" fill="#2B303F"/>
<path d="M575.76 127.319L538.008 149.111V133.895L575.76 112.104V127.319Z" fill="#2B303F"/>
<path d="M533.988 173.603L520.812 181.211V165.995L533.988 158.387V173.603Z" fill="#2B303F"/>
<path d="M575.76 149.495L538.008 171.287V156.071L575.76 134.279V149.495Z" fill="#2B303F"/>
<path d="M533.988 195.779L520.812 203.399V188.171L533.988 180.563V195.779Z" fill="#2B303F"/>
<path d="M575.76 171.671L538.008 193.463V178.247L575.76 156.455V171.671Z" fill="#2B303F"/>
<path d="M454.621 92.2917L441.529 84.7318V69.6118L454.621 77.1718V92.2917Z" fill="#2B303F"/>
<path d="M496.117 116.243L458.617 94.5955V79.4756L496.117 101.136V116.243Z" fill="#2B303F"/>
<path d="M454.621 114.323L441.529 106.763V91.6555L454.621 99.2035V114.323Z" fill="#2B303F"/>
<path d="M496.117 138.288L458.617 116.628V101.52L496.117 123.168V138.288Z" fill="#2B303F"/>
<path d="M454.621 136.355L441.529 128.795V113.688L454.621 121.247V136.355Z" fill="#2B303F"/>
<path d="M496.117 160.319L458.617 138.671V123.552L496.117 145.199V160.319Z" fill="#2B303F"/>
<path d="M454.621 158.4L441.529 150.84V135.72L454.621 143.28V158.4Z" fill="#2B303F"/>
<path d="M496.117 182.351L458.617 160.703V145.583L496.117 167.231V182.351Z" fill="#2B303F"/>
<path d="M454.621 180.431L441.529 172.871V157.751L454.621 165.311V180.431Z" fill="#2B303F"/>
<path d="M496.117 204.383L458.617 182.735V167.615L496.117 189.263V204.383Z" fill="#2B303F"/>
<path d="M432.013 191.855L508.128 235.007L584.256 190.307V200.639L508.128 244.595L432.013 200.639V191.855Z" fill="#1A345D"/>
<path d="M509.76 44.9758C508.118 45.354 506.411 45.354 504.768 44.9758L500.988 47.1598C505.063 48.5642 509.49 48.5642 513.564 47.1598L509.76 44.9758Z" fill="#2B303F"/>
<path d="M513.396 42.888L517.2 45.0839C517.764 44.6615 518.222 44.1135 518.537 43.4834C518.852 42.8533 519.016 42.1585 519.016 41.454C519.016 40.7494 518.852 40.0546 518.537 39.4245C518.222 38.7944 517.764 38.2464 517.2 37.824L513.408 40.008C513.718 40.4247 513.885 40.9307 513.883 41.45C513.88 41.9692 513.71 42.4738 513.396 42.888Z" fill="#2B303F"/>
<path d="M504.78 37.9199C506.424 37.5479 508.129 37.5479 509.772 37.9199L513.6 35.7239C509.526 34.3196 505.099 34.3196 501.024 35.7239L504.78 37.9199Z" fill="#2B303F"/>
<path d="M501.157 40.008L497.365 37.824C496.799 38.2449 496.339 38.7924 496.022 39.4227C495.705 40.053 495.541 40.7486 495.541 41.454C495.541 42.1593 495.705 42.8549 496.022 43.4852C496.339 44.1155 496.799 44.663 497.365 45.0839L501.157 42.9C500.842 42.4835 500.672 41.9758 500.672 41.454C500.672 40.9321 500.842 40.4245 501.157 40.008Z" fill="#2B303F"/>
<path d="M519.96 46.6797L523.56 48.7917C529.368 44.4837 529.368 38.4117 523.56 34.1038L519.96 36.2278C523.812 39.3357 523.812 43.5597 519.96 46.6797Z" fill="#2B303F"/>
<path d="M516.336 48.7676C510.502 50.9994 504.05 50.9994 498.216 48.7676L494.556 50.8796C502.699 54.2392 511.841 54.2392 519.984 50.8796L516.336 48.7676Z" fill="#2B303F"/>
<path d="M498.216 34.128C504.047 31.9015 510.493 31.9015 516.324 34.128L519.984 32.016C511.839 28.6682 502.702 28.6682 494.556 32.016L498.216 34.128Z" fill="#2B303F"/>
<path d="M494.593 36.2158L490.933 34.1038C485.125 38.4117 485.125 44.4837 490.933 48.7917L494.593 46.6797C490.801 43.5597 490.729 39.3357 494.593 36.2158Z" fill="#2B303F"/>
<path d="M526.356 50.4L529.956 52.5C539.22 46.152 539.22 36.8041 529.956 30.4441L526.356 32.5441C533.652 37.7041 533.64 45.192 526.356 50.4Z" fill="#2B303F"/>
<path d="M522.732 52.4639C513.756 56.6759 500.784 56.6759 491.808 52.4639L488.208 54.5639C499.212 59.9038 515.4 59.9038 526.404 54.5639L522.732 52.4639Z" fill="#2B303F"/>
<path d="M491.808 30.4318C500.796 26.2199 513.756 26.2199 522.732 30.4318L526.332 28.3319C515.328 22.9799 499.14 22.9799 488.136 28.3319L491.808 30.4318Z" fill="#2B303F"/>
<path d="M488.184 32.5199L484.584 30.4199C475.32 36.7799 475.32 46.1279 484.584 52.4758L488.184 50.3758C480.9 45.1919 480.9 37.7039 488.184 32.5199Z" fill="#2B303F"/>
<path opacity="0.4" d="M211.934 277.115L120.23 224.171L211.934 171.227L303.637 224.171L211.934 277.115Z" fill="#D6D8E5"/>
<path d="M300.721 212.471L220.753 166.307L140.786 212.471L129.05 205.703V219.251L220.753 272.183L312.457 219.251V205.703L300.721 212.471Z" fill="#D5D6E0"/>
<path d="M220.753 258.647L129.05 205.703L220.753 152.76L312.457 205.703L220.753 258.647Z" fill="#E9EAF4"/>
<path d="M220.753 94.2957L144.638 50.3398L220.753 6.396L296.881 50.3398L220.753 94.2957Z" fill="#E9EAF4"/>
<path d="M144.638 50.3398V207.035L220.753 250.991V94.2957L144.638 50.3398Z" fill="#DFE0EA"/>
<path d="M220.753 250.991L296.881 207.035V50.3398L220.753 94.2957V250.991Z" fill="#D5D6E0"/>
<path d="M246.613 113.471L233.438 121.079V105.863L246.613 98.2554V113.471Z" fill="#2B303F"/>
<path d="M288.373 89.3637L250.633 111.156V95.9277L288.373 74.1357V89.3637Z" fill="#2B303F"/>
<path d="M246.613 135.648L233.438 143.256V128.04L246.613 120.432V135.648Z" fill="#2B303F"/>
<path d="M288.373 111.54L250.633 133.332V118.116L288.373 96.3237V111.54Z" fill="#2B303F"/>
<path d="M246.613 157.824L233.438 165.432V150.216L246.613 142.608V157.824Z" fill="#2B303F"/>
<path d="M288.373 133.715L250.633 155.507V140.291L288.373 118.5V133.715Z" fill="#2B303F"/>
<path d="M246.613 179.999L233.438 187.607V172.391L246.613 164.783V179.999Z" fill="#2B303F"/>
<path d="M288.373 155.891L250.633 177.683V162.467L288.373 140.676V155.891Z" fill="#2B303F"/>
<path d="M246.613 202.187L233.438 209.795V194.579L246.613 186.971V202.187Z" fill="#2B303F"/>
<path d="M288.373 178.067L250.633 199.859V184.643L288.373 162.851V178.067Z" fill="#2B303F"/>
<path d="M167.246 98.6877L154.154 91.1278V76.0078L167.246 83.5678V98.6877Z" fill="#2B303F"/>
<path d="M208.729 122.64L171.229 100.992V85.8718L208.729 107.532V122.64Z" fill="#2B303F"/>
<path d="M167.246 120.719L154.154 113.159V98.0515L167.246 105.611V120.719Z" fill="#2B303F"/>
<path d="M208.729 144.683L171.229 123.035V107.916L208.729 129.563V144.683Z" fill="#2B303F"/>
<path d="M167.246 142.764L154.154 135.204V120.084L167.246 127.644V142.764Z" fill="#2B303F"/>
<path d="M208.729 166.715L171.229 145.067V129.948L208.729 151.595V166.715Z" fill="#2B303F"/>
<path d="M167.246 164.795L154.154 157.235V142.115L167.246 149.675V164.795Z" fill="#2B303F"/>
<path d="M208.729 188.747L171.229 167.099V151.979L208.729 173.627V188.747Z" fill="#2B303F"/>
<path d="M167.246 186.827L154.154 179.267V164.147L167.246 171.707V186.827Z" fill="#2B303F"/>
<path d="M208.729 210.779L171.229 189.131V174.011L208.729 195.671V210.779Z" fill="#2B303F"/>
<path d="M144.638 198.251L220.753 241.415L296.881 196.703V207.035L220.753 250.991L144.638 207.035V198.251Z" fill="#1A345D"/>
<path d="M222.386 51.3838C220.742 51.7558 219.037 51.7558 217.394 51.3838L213.602 53.5678C217.68 54.9721 222.111 54.9721 226.19 53.5678L222.386 51.3838Z" fill="#2B303F"/>
<path d="M226.009 49.2838L229.813 51.4798C230.366 51.0562 230.813 50.5113 231.121 49.887C231.429 49.2627 231.59 48.5759 231.59 47.8798C231.59 47.1836 231.429 46.4968 231.121 45.8726C230.813 45.2483 230.366 44.7033 229.813 44.2798L226.021 46.4638C226.317 46.8749 226.475 47.3692 226.473 47.8757C226.471 48.3823 226.309 48.8751 226.009 49.2838Z" fill="#2B303F"/>
<path d="M217.406 44.3159C219.049 43.9439 220.754 43.9439 222.398 44.3159L226.19 42.1319C222.11 40.734 217.681 40.734 213.602 42.1319L217.406 44.3159Z" fill="#2B303F"/>
<path d="M213.781 46.404L210.002 44.22C209.449 44.6435 209.001 45.1885 208.693 45.8127C208.385 46.437 208.225 47.1238 208.225 47.82C208.225 48.5161 208.385 49.2029 208.693 49.8272C209.001 50.4514 209.449 50.9964 210.002 51.4199L213.793 49.236C213.491 48.8262 213.327 48.331 213.325 47.8219C213.323 47.3128 213.483 46.8163 213.781 46.404Z" fill="#2B303F"/>
<path d="M232.585 53.0757L236.185 55.1877C241.993 50.8797 241.993 44.8077 236.185 40.4998L232.525 42.6237C236.401 45.7437 236.401 49.9557 232.585 53.0757Z" fill="#2B303F"/>
<path d="M228.95 55.1997C223.119 57.4262 216.672 57.4262 210.842 55.1997L207.242 57.3117C215.385 60.6713 224.527 60.6713 232.67 57.3117L228.95 55.1997Z" fill="#2B303F"/>
<path d="M210.842 40.5238C216.672 38.2973 223.119 38.2973 228.95 40.5238L232.61 38.3998C224.464 35.0519 215.327 35.0519 207.182 38.3998L210.842 40.5238Z" fill="#2B303F"/>
<path d="M207.218 42.612L203.558 40.512C197.75 44.8079 197.75 50.8799 203.558 55.1879L207.218 53.0759C203.366 49.9559 203.354 45.7319 207.218 42.612Z" fill="#2B303F"/>
<path d="M238.981 56.7716L242.581 58.8716C251.845 52.5236 251.845 43.1757 242.581 36.8157L238.981 38.9157C246.265 44.0996 246.265 51.5996 238.981 56.7716Z" fill="#2B303F"/>
<path d="M235.357 58.8599C226.369 63.0718 213.409 63.0718 204.433 58.8599L200.833 60.9599C211.837 66.2998 228.025 66.2998 239.029 60.9599L235.357 58.8599Z" fill="#2B303F"/>
<path d="M204.434 36.8278C213.422 32.6279 226.382 32.6159 235.358 36.8278L238.958 34.7279C227.954 29.3759 211.766 29.3759 200.762 34.7279L204.434 36.8278Z" fill="#2B303F"/>
<path d="M200.81 38.9157L197.21 36.8157C187.946 43.1757 187.946 52.5236 197.21 58.8716L200.81 56.7716C193.526 51.5996 193.526 44.1116 200.81 38.9157Z" fill="#2B303F"/>
<path opacity="0.4" d="M350.521 356.231L258.817 303.287L350.521 250.343L442.225 303.287L350.521 356.231Z" fill="#D6D8E5"/>
<path d="M439.309 291.587L359.341 245.411L279.373 291.587L267.637 284.819V298.355L359.341 351.299L451.045 298.367V284.819L439.309 291.587Z" fill="#D5D6E0"/>
<path d="M359.341 337.763L267.637 284.819L359.341 231.875L451.045 284.819L359.341 337.763Z" fill="#E9EAF4"/>
<path d="M359.341 173.411L283.225 129.456L359.341 85.5117L435.457 129.468L359.341 173.411Z" fill="#E9EAF4"/>
<path d="M283.225 129.455V286.151L359.341 330.107V173.411L283.225 129.455Z" fill="#DFE0EA"/>
<path d="M359.341 330.107L435.457 286.163V129.467L359.341 173.411V330.107Z" fill="#D5D6E0"/>
<path d="M385.201 192.587L372.025 200.195V184.979L385.201 177.371V192.587Z" fill="#2B303F"/>
<path d="M426.961 168.479L389.221 190.271V175.055L426.961 153.263V168.479Z" fill="#2B303F"/>
<path d="M385.201 214.763L372.025 222.371V207.155L385.201 199.547V214.763Z" fill="#2B303F"/>
<path d="M426.961 190.655L389.221 212.447V197.231L426.961 175.439V190.655Z" fill="#2B303F"/>
<path d="M385.201 236.939L372.025 244.547V229.331L385.201 221.723V236.939Z" fill="#2B303F"/>
<path d="M426.961 212.831L389.221 234.623V219.407L426.961 197.615V212.831Z" fill="#2B303F"/>
<path d="M385.201 259.115L372.025 266.723V251.507L385.201 243.899V259.115Z" fill="#2B303F"/>
<path d="M426.961 235.007L389.221 256.799V241.583L426.961 219.791V235.007Z" fill="#2B303F"/>
<path d="M385.201 281.303L372.025 288.911V273.695L385.201 266.087V281.303Z" fill="#2B303F"/>
<path d="M426.961 257.183L389.221 278.975V263.759L426.961 241.967V257.183Z" fill="#2B303F"/>
<path d="M305.821 177.803L292.729 170.243V155.135L305.821 162.683V177.803Z" fill="#2B303F"/>
<path d="M347.317 201.755L309.817 180.107V165L347.317 186.647V201.755Z" fill="#2B303F"/>
<path d="M305.821 199.835L292.729 192.275V177.167L305.821 184.727V199.835Z" fill="#2B303F"/>
<path d="M347.317 223.799L309.817 202.151V187.031L347.317 208.679V223.799Z" fill="#2B303F"/>
<path d="M305.821 221.879L292.729 214.319V199.199L305.821 206.759V221.879Z" fill="#2B303F"/>
<path d="M347.317 245.831L309.817 224.183V209.063L347.317 230.711V245.831Z" fill="#2B303F"/>
<path d="M305.821 243.911L292.729 236.351V221.231L305.821 228.791V243.911Z" fill="#2B303F"/>
<path d="M347.317 267.863L309.817 246.215V231.095L347.317 252.743V267.863Z" fill="#2B303F"/>
<path d="M305.821 265.943L292.729 258.383V243.263L305.821 250.823V265.943Z" fill="#2B303F"/>
<path d="M347.317 289.895L309.817 268.247V253.127L347.317 274.787V289.895Z" fill="#2B303F"/>
<path d="M283.225 277.367L359.341 320.531L435.457 275.819V286.163L359.341 330.107L283.225 286.151V277.367Z" fill="#1A345D"/>
<path d="M360.973 130.5C359.33 130.872 357.624 130.872 355.981 130.5L352.189 132.684C356.267 134.088 360.698 134.088 364.777 132.684L360.973 130.5Z" fill="#2B303F"/>
<path d="M364.597 128.4L368.401 130.596C368.953 130.172 369.401 129.627 369.709 129.003C370.017 128.379 370.177 127.692 370.177 126.996C370.177 126.3 370.017 125.613 369.709 124.989C369.401 124.364 368.953 123.819 368.401 123.396L364.609 125.58C364.905 125.991 365.063 126.485 365.061 126.992C365.058 127.498 364.896 127.991 364.597 128.4Z" fill="#2B303F"/>
<path d="M355.993 123.432C357.636 123.06 359.342 123.06 360.985 123.432L364.801 121.2C360.721 119.802 356.292 119.802 352.213 121.2L355.993 123.432Z" fill="#2B303F"/>
<path d="M352.369 125.52L348.565 123.336C348.012 123.759 347.565 124.304 347.257 124.928C346.949 125.553 346.789 126.24 346.789 126.936C346.789 127.632 346.949 128.319 347.257 128.943C347.565 129.567 348.012 130.112 348.565 130.536L352.357 128.352C352.058 127.939 351.899 127.443 351.901 126.934C351.903 126.425 352.067 125.929 352.369 125.52Z" fill="#2B303F"/>
<path d="M371.173 132.191L374.773 134.303C380.581 129.995 380.581 123.923 374.773 119.615L371.113 121.739C375.013 124.859 375.025 129.071 371.173 132.191Z" fill="#2B303F"/>
<path d="M367.537 134.292C361.706 136.518 355.26 136.518 349.429 134.292L345.769 136.403C353.912 139.763 363.054 139.763 371.197 136.403L367.537 134.292Z" fill="#2B303F"/>
<path d="M349.429 119.64C355.26 117.413 361.706 117.413 367.537 119.64L371.197 117.528C363.052 114.18 353.914 114.18 345.769 117.528L349.429 119.64Z" fill="#2B303F"/>
<path d="M345.793 121.727L342.193 119.627C336.385 123.923 336.385 129.995 342.193 134.303L345.853 132.191C342.001 129.071 342.001 124.799 345.793 121.727Z" fill="#2B303F"/>
<path d="M377.569 135.888L381.169 137.988C390.433 131.64 390.433 122.292 381.169 115.932L377.569 118.032C384.853 123.216 384.853 130.704 377.569 135.888Z" fill="#2B303F"/>
<path d="M373.945 138C364.957 142.211 351.997 142.211 343.021 138L339.421 140.1C350.425 145.439 366.613 145.439 377.617 140.1L373.945 138Z" fill="#2B303F"/>
<path d="M343.021 115.944C352.009 111.744 364.969 111.732 373.945 115.944L377.545 113.844C366.541 108.492 350.353 108.492 339.349 113.844L343.021 115.944Z" fill="#2B303F"/>
<path d="M339.397 118.032L335.797 115.932C326.533 122.292 326.533 131.64 335.797 137.988L339.397 135.888C332.113 130.704 332.113 123.228 339.397 118.032Z" fill="#2B303F"/>
<path opacity="0.4" d="M499.476 442.307L407.772 389.363L499.476 336.419L591.18 389.363L499.476 442.307Z" fill="#D6D8E5"/>
<path d="M588.276 377.663L508.296 331.499L428.329 377.663L416.593 370.895V384.443L508.296 437.386L600 384.443V370.895L588.276 377.663Z" fill="#D5D6E0"/>
<path d="M508.296 423.838L416.593 370.894L508.296 317.951L600 370.894L508.296 423.838Z" fill="#E9EAF4"/>
<path d="M508.296 259.487L432.181 215.543L508.296 171.587L584.412 215.543L508.296 259.487Z" fill="#E9EAF4"/>
<path d="M432.181 215.543V372.227L508.296 416.183V259.487L432.181 215.543Z" fill="#DFE0EA"/>
<path d="M508.296 416.183L584.412 372.239V215.543L508.296 259.487V416.183Z" fill="#D5D6E0"/>
<path d="M534.156 278.663L520.98 286.271V271.055L534.156 263.447V278.663Z" fill="#2B303F"/>
<path d="M575.916 254.555L538.176 276.347V261.131L575.916 239.339V254.555Z" fill="#2B303F"/>
<path d="M534.156 300.839L520.98 308.447V293.231L534.156 285.623V300.839Z" fill="#2B303F"/>
<path d="M575.916 276.731L538.176 298.523V283.307L575.916 261.515V276.731Z" fill="#2B303F"/>
<path d="M534.156 323.015L520.98 330.623V315.407L534.156 307.799V323.015Z" fill="#2B303F"/>
<path d="M575.916 298.907L538.176 320.699V305.483L575.916 283.691V298.907Z" fill="#2B303F"/>
<path d="M534.156 345.203L520.98 352.811V337.595L534.156 329.987V345.203Z" fill="#2B303F"/>
<path d="M575.916 321.083L538.176 342.875V327.659L575.916 305.867V321.083Z" fill="#2B303F"/>
<path d="M534.156 367.379L520.98 374.986V359.771L534.156 352.163V367.379Z" fill="#2B303F"/>
<path d="M575.916 343.259L538.176 365.051V349.835L575.916 328.043V343.259Z" fill="#2B303F"/>
<path d="M454.788 263.879L441.696 256.319V241.211L454.788 248.771V263.879Z" fill="#2B303F"/>
<path d="M496.272 287.843L458.772 266.183V251.075L496.272 272.723V287.843Z" fill="#2B303F"/>
<path d="M454.788 285.911L441.696 278.363V263.243L454.788 270.803V285.911Z" fill="#2B303F"/>
<path d="M496.272 309.875L458.772 288.227V273.107L496.272 294.755V309.875Z" fill="#2B303F"/>
<path d="M454.788 307.955L441.696 300.395V285.275L454.788 292.835V307.955Z" fill="#2B303F"/>
<path d="M496.272 331.907L458.772 310.259V295.139L496.272 316.787V331.907Z" fill="#2B303F"/>
<path d="M454.788 329.987L441.696 322.427V307.307L454.788 314.867V329.987Z" fill="#2B303F"/>
<path d="M496.272 353.939L458.772 332.291V317.171L496.272 338.831V353.939Z" fill="#2B303F"/>
<path d="M454.788 352.019L441.696 344.459V329.339L454.788 336.899V352.019Z" fill="#2B303F"/>
<path d="M496.272 375.97L458.772 354.323V339.203L496.272 360.863V375.97Z" fill="#2B303F"/>
<path d="M432.181 363.455L508.296 406.607L584.412 361.895V372.239L508.296 416.183L432.181 372.227V363.455Z" fill="#1A345D"/>
<path d="M509.929 216.575C508.286 216.953 506.579 216.953 504.937 216.575L501.145 218.759C505.223 220.164 509.654 220.164 513.732 218.759L509.929 216.575Z" fill="#2B303F"/>
<path d="M513.601 214.475L517.405 216.671C517.968 216.249 518.426 215.701 518.741 215.071C519.056 214.44 519.221 213.746 519.221 213.041C519.221 212.337 519.056 211.642 518.741 211.012C518.426 210.382 517.968 209.834 517.405 209.411L513.601 211.595C513.912 212.011 514.081 212.516 514.081 213.035C514.081 213.554 513.912 214.06 513.601 214.475Z" fill="#2B303F"/>
<path d="M504.948 209.507C506.591 209.129 508.298 209.129 509.94 209.507L513.732 207.311C509.656 205.919 505.233 205.919 501.156 207.311L504.948 209.507Z" fill="#2B303F"/>
<path d="M501.325 211.595L497.521 209.411C496.957 209.834 496.499 210.382 496.184 211.012C495.869 211.642 495.705 212.337 495.705 213.041C495.705 213.746 495.869 214.44 496.184 215.071C496.499 215.701 496.957 216.249 497.521 216.671L501.313 214.487C501 214.069 500.832 213.561 500.834 213.039C500.836 212.517 501.008 212.01 501.325 211.595Z" fill="#2B303F"/>
<path d="M520.128 218.267L523.728 220.379C529.536 216.083 529.536 209.999 523.728 205.703L520.068 207.815C523.98 210.935 523.98 215.159 520.128 218.267Z" fill="#2B303F"/>
<path d="M516.505 220.367C510.67 222.593 504.219 222.593 498.385 220.367L494.725 222.491C502.87 225.839 512.007 225.839 520.153 222.491L516.505 220.367Z" fill="#2B303F"/>
<path d="M498.385 205.715C504.216 203.496 510.661 203.496 516.492 205.715L520.092 203.603C511.947 200.256 502.81 200.256 494.665 203.603L498.385 205.715Z" fill="#2B303F"/>
<path d="M494.76 207.815L491.1 205.703C485.292 209.999 485.292 216.083 491.1 220.379L494.76 218.267C490.908 215.147 490.896 210.923 494.76 207.815Z" fill="#2B303F"/>
<path d="M526.524 221.999L530.124 224.099C539.388 217.751 539.388 208.403 530.124 202.043L526.524 204.143C533.808 209.303 533.808 216.779 526.524 221.999Z" fill="#2B303F"/>
<path d="M522.9 224.063C513.912 228.263 500.952 228.263 491.976 224.063L488.376 226.163C499.38 231.503 515.568 231.503 526.572 226.163L522.9 224.063Z" fill="#2B303F"/>
<path d="M492.001 202.019C500.989 197.819 513.949 197.807 522.924 202.019L526.524 199.919C515.52 194.567 499.333 194.579 488.329 199.919L492.001 202.019Z" fill="#2B303F"/>
<path d="M488.4 204.119L484.801 202.019C475.537 208.367 475.537 217.715 484.801 224.063L488.4 221.963C481.069 216.779 481.069 209.303 488.4 204.119Z" fill="#2B303F"/>
<path opacity="0.4" d="M59.174 511.534L4.21422 479.794C-2.02576 476.194 -1.24576 469.918 5.95421 465.766L33.8541 449.65C41.0541 445.498 51.938 445.042 58.166 448.642L113.126 480.382C119.366 483.982 118.574 490.258 111.386 494.41L83.4859 510.526C76.2859 514.678 65.402 515.134 59.174 511.534Z" fill="#D6D8E5"/>
<path d="M141.722 471.934V395.207L24.4221 382.007V459.214C24.3381 461.614 25.6941 463.822 28.5981 465.502L83.5579 497.23C89.7859 500.83 100.682 500.374 107.87 496.222L135.77 480.118C139.826 477.718 141.842 474.766 141.77 471.934H141.722Z" fill="#D6D8E5"/>
<path d="M141.698 403.582V395.182H132.674L82.5621 366.262C76.3341 362.662 65.4502 363.118 58.2502 367.27L30.3503 383.374C29.8544 383.661 29.3738 383.974 28.9103 384.31L24.4223 382.006C24.4223 382.006 24.4223 390.85 24.4223 391.15C24.3623 393.55 25.7183 395.746 28.6103 397.414L83.5701 429.142C89.7981 432.742 100.694 432.298 107.882 428.134L135.782 412.03C139.958 409.63 141.962 406.498 141.698 403.63V403.582Z" fill="#EDF0F9"/>
<path d="M83.558 419.998L28.5982 388.27C22.3702 384.67 23.1502 378.394 30.3502 374.23L58.2501 358.127C65.4501 353.975 76.3341 353.519 82.562 357.119L137.522 388.846C143.75 392.446 142.97 398.734 135.77 402.886L107.87 419.014C100.682 423.178 89.786 423.598 83.558 419.998Z" fill="#E2E5F2"/>
<path d="M111.794 391.198C111.801 391.687 111.675 392.168 111.43 392.591C111.185 393.014 110.829 393.362 110.402 393.598L85.0819 408.214C84.6711 408.45 84.2056 408.574 83.7319 408.574C83.2582 408.574 82.7928 408.45 82.3819 408.214L46.9581 387.682C46.5454 387.447 46.2025 387.106 45.9643 386.695C45.7261 386.284 45.6011 385.818 45.6021 385.342V385.198L111.794 391.198Z" fill="#E5E5E5"/>
<path d="M110.402 393.598L85.0818 408.214C84.6732 408.45 84.2096 408.574 83.7378 408.574V391.198H111.794C111.801 391.687 111.675 392.168 111.43 392.591C111.184 393.014 110.829 393.362 110.402 393.598Z" fill="#E5E5E5"/>
<path d="M84.7339 406.798C84.441 406.97 84.1075 407.061 83.7679 407.061C83.4282 407.061 83.0948 406.97 82.8019 406.798L45.962 385.546C45.8575 385.513 45.7661 385.448 45.7013 385.359C45.6365 385.271 45.6016 385.164 45.6016 385.054C45.6016 384.945 45.6365 384.838 45.7013 384.749C45.7661 384.661 45.8575 384.595 45.962 384.562L73.1179 368.878L111.794 391.198L84.7339 406.798Z" fill="#F4F4F4"/>
<path d="M61.106 391.21L61.298 391.318L73.1179 398.146L79.5979 394.402L79.7779 394.294L67.7779 387.358L61.106 391.21Z" fill="#BFBFBF"/>
<path d="M61.2979 391.318L73.1178 398.146L79.5978 394.402L67.7778 387.574L61.2979 391.318Z" fill="#E5E5E5"/>
<path d="M101.534 392.555L103.202 393.599C103.285 393.643 103.378 393.666 103.472 393.666C103.566 393.666 103.659 393.643 103.742 393.599L105.362 392.663C105.53 392.567 105.542 392.435 105.362 392.351L103.658 391.367C103.575 391.322 103.482 391.299 103.388 391.299C103.294 391.299 103.201 391.322 103.118 391.367L101.498 392.303C101.414 392.399 101.402 392.471 101.534 392.555Z" fill="#2B303F"/>
<path d="M99.122 391.198L100.826 392.182C100.911 392.226 101.006 392.25 101.102 392.25C101.198 392.25 101.293 392.226 101.378 392.182L102.998 391.246C103.166 391.15 103.178 391.006 102.998 390.934L101.294 389.95C101.211 389.906 101.118 389.883 101.024 389.883C100.93 389.883 100.837 389.906 100.754 389.95L99.134 390.886C99.002 390.946 98.99 391.078 99.122 391.198Z" fill="#2B303F"/>
<path d="M96.7099 389.77L98.4139 390.754C98.4992 390.798 98.5938 390.822 98.6899 390.822C98.786 390.822 98.8806 390.798 98.9659 390.754L100.586 389.818C100.742 389.722 100.766 389.578 100.586 389.506L98.8819 388.522C98.7987 388.478 98.706 388.455 98.6119 388.455C98.5178 388.455 98.4251 388.478 98.3419 388.522L96.7219 389.458C96.5899 389.554 96.5779 389.686 96.7099 389.77Z" fill="#2B303F"/>
<path d="M94.2978 388.378L96.0018 389.362C96.0871 389.407 96.1817 389.43 96.2778 389.43C96.3738 389.43 96.4685 389.407 96.5538 389.362L98.1738 388.426C98.3298 388.33 98.3538 388.186 98.1738 388.114L96.4698 387.13C96.3866 387.086 96.2939 387.063 96.1998 387.063C96.1056 387.063 96.0129 387.086 95.9298 387.13L94.3098 388.066C94.1778 388.15 94.1658 388.294 94.2978 388.378Z" fill="#2B303F"/>
<path d="M91.8861 386.986L93.59 387.97C93.6741 388.012 93.7664 388.033 93.86 388.033C93.9537 388.033 94.046 388.012 94.1301 387.97L95.762 387.034C95.918 386.938 95.942 386.794 95.762 386.722L94.058 385.738C93.974 385.697 93.8817 385.676 93.788 385.676C93.6944 385.676 93.6021 385.697 93.5181 385.738L91.8861 386.686C91.7661 386.758 91.7541 386.902 91.8861 386.986Z" fill="#2B303F"/>
<path d="M89.4739 385.594L91.1779 386.578C91.262 386.62 91.3543 386.641 91.4479 386.641C91.5416 386.641 91.6339 386.62 91.7179 386.578L93.3499 385.642C93.5059 385.546 93.5299 385.402 93.3499 385.318L91.6459 384.334C91.561 384.296 91.469 384.277 91.3759 384.277C91.2829 384.277 91.1909 384.296 91.1059 384.334L89.4739 385.282C89.3539 385.366 89.3419 385.51 89.4739 385.594Z" fill="#2B303F"/>
<path d="M87.0619 384.202L88.8019 385.198C88.8868 385.237 88.9789 385.256 89.0719 385.256C89.165 385.256 89.257 385.237 89.3419 385.198L90.9739 384.25C91.1299 384.166 91.1539 384.022 90.9739 383.938L89.2699 382.954C89.185 382.916 89.093 382.897 88.9999 382.897C88.9069 382.897 88.8148 382.916 88.7299 382.954L87.0979 383.89C86.9419 383.998 86.9179 384.118 87.0619 384.202Z" fill="#2B303F"/>
<path d="M84.65 382.798L86.354 383.782C86.4389 383.82 86.5309 383.84 86.624 383.84C86.717 383.84 86.8091 383.82 86.894 383.782L88.526 382.834C88.682 382.75 88.706 382.606 88.526 382.522L86.822 381.538C86.738 381.497 86.6456 381.476 86.552 381.476C86.4584 381.476 86.366 381.497 86.282 381.538L84.65 382.474C84.53 382.582 84.506 382.726 84.65 382.798Z" fill="#2B303F"/>
<path d="M82.2379 381.407L83.9419 382.391C84.0259 382.432 84.1183 382.453 84.2119 382.453C84.3055 382.453 84.3979 382.432 84.4819 382.391L86.1139 381.443C86.2699 381.359 86.2939 381.215 86.1139 381.131L84.4099 380.147C84.3259 380.105 84.2335 380.084 84.1399 380.084C84.0463 380.084 83.9539 380.105 83.8699 380.147L82.2379 381.083C82.1179 381.191 82.0939 381.335 82.2379 381.407Z" fill="#2B303F"/>
<path d="M79.8258 380.015L81.5298 380.999C81.6129 381.043 81.7056 381.066 81.7998 381.066C81.8939 381.066 81.9866 381.043 82.0698 380.999L83.7018 380.063C83.8578 379.967 83.8698 379.835 83.7018 379.751L81.9978 378.767C81.9146 378.723 81.8219 378.699 81.7278 378.699C81.6336 378.699 81.5409 378.723 81.4578 378.767L79.8258 379.703C79.7058 379.799 79.6818 379.943 79.8258 380.015Z" fill="#2B303F"/>
<path d="M77.4141 378.622L79.1181 379.606C79.2013 379.65 79.294 379.674 79.3881 379.674C79.4823 379.674 79.575 379.65 79.6581 379.606L81.2901 378.67C81.4461 378.574 81.4581 378.442 81.2901 378.358L79.5861 377.374C79.503 377.33 79.4103 377.307 79.3161 377.307C79.222 377.307 79.1293 377.33 79.0461 377.374L77.4141 378.31C77.2941 378.406 77.2701 378.55 77.4141 378.622Z" fill="#2B303F"/>
<path d="M75.0019 377.231L76.7059 378.215C76.7891 378.259 76.8818 378.282 76.9759 378.282C77.07 378.282 77.1628 378.259 77.2459 378.215L78.8659 377.279C79.0339 377.183 79.0459 377.051 78.8659 376.967L77.1619 375.983C77.0766 375.938 76.982 375.915 76.8859 375.915C76.7899 375.915 76.6952 375.938 76.6099 375.983L74.9899 376.919C74.8819 377.015 74.8579 377.147 75.0019 377.231Z" fill="#2B303F"/>
<path d="M72.5898 375.839L74.2938 376.823C74.377 376.867 74.4697 376.89 74.5638 376.89C74.6579 376.89 74.7506 376.867 74.8338 376.823L76.4538 375.887C76.6218 375.791 76.6338 375.659 76.4538 375.575L74.7498 374.591C74.6645 374.546 74.5699 374.523 74.4738 374.523C74.3777 374.523 74.2831 374.546 74.1978 374.591L72.5778 375.527C72.4698 375.599 72.4458 375.755 72.5898 375.839Z" fill="#2B303F"/>
<path d="M69.0141 373.774L71.8821 375.43C71.9653 375.475 72.058 375.498 72.1521 375.498C72.2463 375.498 72.339 375.475 72.4221 375.43L74.0421 374.494C74.2101 374.398 74.2221 374.254 74.0421 374.182L71.1741 372.526C71.091 372.482 70.9983 372.459 70.9041 372.459C70.81 372.459 70.7173 372.482 70.6341 372.526L69.0021 373.462C68.8941 373.558 68.8701 373.69 69.0141 373.774Z" fill="#2B303F"/>
<path d="M95.6176 391.834L97.3216 392.818C97.4077 392.86 97.502 392.881 97.5976 392.881C97.6932 392.881 97.7875 392.86 97.8736 392.818L99.4936 391.87C99.6496 391.786 99.6736 391.642 99.4936 391.558L97.7896 390.574C97.7056 390.533 97.6132 390.511 97.5196 390.511C97.426 390.511 97.3336 390.533 97.2496 390.574L95.6296 391.51C95.4976 391.618 95.4856 391.762 95.6176 391.834Z" fill="#2B303F"/>
<path d="M93.2061 390.442L94.9101 391.426C94.9933 391.471 95.086 391.494 95.1801 391.494C95.2743 391.494 95.367 391.471 95.4501 391.426L97.0821 390.49C97.2381 390.394 97.2621 390.262 97.0821 390.178L95.3781 389.194C95.295 389.15 95.2023 389.127 95.1081 389.127C95.014 389.127 94.9213 389.15 94.8381 389.194L93.2061 390.13C93.0861 390.226 93.0621 390.358 93.2061 390.442Z" fill="#2B303F"/>
<path d="M90.7821 389.051L92.498 390.035C92.5812 390.079 92.6739 390.102 92.768 390.102C92.8622 390.102 92.9549 390.079 93.038 390.035L94.658 389.099C94.826 389.003 94.838 388.859 94.658 388.787L92.942 387.803C92.8589 387.758 92.7662 387.735 92.672 387.735C92.5779 387.735 92.4852 387.758 92.402 387.803L90.7821 388.739C90.6621 388.799 90.6501 388.967 90.7821 389.051Z" fill="#2B303F"/>
<path d="M88.37 387.658L90.074 388.642C90.1589 388.681 90.251 388.7 90.344 388.7C90.4371 388.7 90.5291 388.681 90.614 388.642L92.246 387.694C92.402 387.61 92.426 387.466 92.246 387.382L90.578 386.398C90.494 386.357 90.4016 386.336 90.308 386.336C90.2144 386.336 90.122 386.357 90.038 386.398L88.406 387.334C88.25 387.43 88.226 387.598 88.37 387.658Z" fill="#2B303F"/>
<path d="M85.9702 386.267L87.6741 387.251C87.7594 387.295 87.8541 387.318 87.9502 387.318C88.0462 387.318 88.1409 387.295 88.2261 387.251L89.8461 386.315C90.0021 386.219 90.0261 386.087 89.8461 386.003L88.1421 385.019C88.059 384.974 87.9663 384.951 87.8721 384.951C87.778 384.951 87.6853 384.974 87.6022 385.019L85.9822 385.955C85.8502 386.051 85.8382 386.195 85.9702 386.267Z" fill="#2B303F"/>
<path d="M83.5577 384.874L85.2617 385.858C85.3449 385.902 85.4376 385.925 85.5317 385.925C85.6258 385.925 85.7185 385.902 85.8017 385.858L87.4337 384.922C87.5897 384.826 87.6017 384.682 87.4337 384.61L85.7297 383.626C85.6465 383.582 85.5538 383.559 85.4597 383.559C85.3656 383.559 85.2728 383.582 85.1897 383.626L83.5577 384.562C83.4377 384.658 83.4137 384.79 83.5577 384.874Z" fill="#2B303F"/>
<path d="M81.1337 383.482L82.8377 384.466C82.9247 384.505 83.0187 384.524 83.1137 384.524C83.2088 384.524 83.3028 384.505 83.3897 384.466L85.0097 383.53C85.1777 383.434 85.1897 383.29 85.0097 383.206L83.3057 382.222C83.2208 382.184 83.1288 382.165 83.0357 382.165C82.9427 382.165 82.8506 382.184 82.7657 382.222L81.1457 383.17C81.0137 383.254 81.0017 383.398 81.1337 383.482Z" fill="#2B303F"/>
<path d="M78.7218 382.079L80.4258 383.063C80.5089 383.107 80.6016 383.13 80.6958 383.13C80.7899 383.13 80.8826 383.107 80.9658 383.063L82.5978 382.127C82.7538 382.043 82.7778 381.899 82.5978 381.815L80.8938 380.831C80.8106 380.786 80.7179 380.763 80.6238 380.763C80.5296 380.763 80.4369 380.786 80.3538 380.831L78.7218 381.767C78.6018 381.863 78.5778 382.007 78.7218 382.079Z" fill="#2B303F"/>
<path d="M76.3101 380.686L78.0141 381.67C78.0972 381.714 78.1899 381.738 78.2841 381.738C78.3782 381.738 78.4709 381.714 78.5541 381.67L80.1741 380.734C80.3421 380.638 80.3541 380.506 80.1741 380.422L78.4701 379.438C78.3848 379.394 78.2901 379.371 78.1941 379.371C78.098 379.371 78.0034 379.394 77.9181 379.438L76.2981 380.374C76.1781 380.47 76.1661 380.602 76.3101 380.686Z" fill="#2B303F"/>
<path d="M73.8862 379.294L75.5902 380.278C75.6742 380.32 75.7665 380.341 75.8602 380.341C75.9538 380.341 76.0461 380.32 76.1302 380.278L77.7621 379.342C77.9181 379.246 77.9421 379.102 77.7621 379.03L76.0942 377.998C76.0101 377.957 75.9178 377.936 75.8242 377.936C75.7305 377.936 75.6382 377.957 75.5542 377.998L73.9222 378.946C73.7662 379.066 73.7542 379.198 73.8862 379.294Z" fill="#2B303F"/>
<path d="M71.4737 377.89L73.1777 378.874C73.2617 378.916 73.3541 378.937 73.4477 378.937C73.5413 378.937 73.6337 378.916 73.7177 378.874L75.3497 377.926C75.5057 377.842 75.5177 377.698 75.3497 377.614L73.6457 376.63C73.5617 376.589 73.4693 376.568 73.3757 376.568C73.2821 376.568 73.1897 376.589 73.1057 376.63L71.4737 377.566C71.3537 377.674 71.3297 377.818 71.4737 377.89Z" fill="#2B303F"/>
<path d="M69.0502 376.498L70.7542 377.482C70.8395 377.527 70.9342 377.55 71.0302 377.55C71.1263 377.55 71.2209 377.527 71.3062 377.482L72.9262 376.546C73.0942 376.45 73.1062 376.318 72.9262 376.234L71.2222 375.25C71.1391 375.206 71.0464 375.183 70.9522 375.183C70.8581 375.183 70.7654 375.206 70.6822 375.25L69.0622 376.186C68.9302 376.282 68.9182 376.426 69.0502 376.498Z" fill="#2B303F"/>
<path d="M98.042 393.238L100.91 394.894C100.995 394.932 101.087 394.952 101.18 394.952C101.273 394.952 101.365 394.932 101.45 394.894L103.07 393.958C103.238 393.862 103.25 393.718 103.07 393.634L100.202 391.978C100.117 391.94 100.025 391.921 99.932 391.921C99.8389 391.921 99.7469 391.94 99.662 391.978L98.03 392.926C97.922 393.01 97.898 393.154 98.042 393.238Z" fill="#2B303F"/>
<path d="M68.8578 373.846L70.5618 374.83C70.6938 374.902 70.6938 375.034 70.5618 375.118L68.8338 376.114C68.7553 376.153 68.6691 376.172 68.5818 376.172C68.4945 376.172 68.4083 376.153 68.3298 376.114L68.1978 376.03C68.1248 375.995 68.0448 375.977 67.9638 375.977C67.8828 375.977 67.8028 375.995 67.7298 376.03L65.9178 377.086C65.8402 377.127 65.7537 377.149 65.6658 377.149C65.578 377.149 65.4915 377.127 65.4138 377.086L64.3218 376.462C64.2941 376.448 64.2707 376.427 64.2544 376.4C64.2381 376.374 64.2295 376.343 64.2295 376.312C64.2295 376.281 64.2381 376.251 64.2544 376.224C64.2707 376.198 64.2941 376.176 64.3218 376.162L66.0258 375.19L66.3738 374.986L66.6258 374.83L66.8898 374.686L68.3538 373.846C68.4315 373.805 68.518 373.784 68.6058 373.784C68.6936 373.784 68.7801 373.805 68.8578 373.846Z" fill="#2B303F"/>
<path d="M92.1737 397.954L93.8777 398.938C93.9617 398.98 94.054 399.001 94.1477 399.001C94.2413 399.001 94.3336 398.98 94.4176 398.938L96.0496 398.002C96.2056 397.906 96.2296 397.762 96.0496 397.678L94.3457 396.694C94.2607 396.656 94.1687 396.637 94.0756 396.637C93.9826 396.637 93.8906 396.656 93.8056 396.694L92.1737 397.642C92.0537 397.726 92.0417 397.87 92.1737 397.954Z" fill="#2B303F"/>
<path d="M89.7739 396.562L91.4779 397.546C91.5611 397.59 91.6538 397.614 91.7479 397.614C91.8421 397.614 91.9348 397.59 92.0179 397.546L93.6379 396.61C93.8059 396.514 93.8179 396.37 93.6379 396.298L91.9339 395.314C91.8486 395.27 91.754 395.247 91.6579 395.247C91.5619 395.247 91.4672 395.27 91.3819 395.314L89.7619 396.25C89.6419 396.346 89.6299 396.478 89.7739 396.562Z" fill="#2B303F"/>
<path d="M87.3616 395.17L89.0656 396.154C89.1488 396.199 89.2415 396.222 89.3356 396.222C89.4298 396.222 89.5225 396.199 89.6056 396.154L91.2376 395.218C91.3936 395.122 91.4176 394.99 91.2376 394.906L89.5336 393.922C89.4505 393.878 89.3578 393.855 89.2636 393.855C89.1695 393.855 89.0768 393.878 88.9936 393.922L87.3616 394.858C87.2416 394.954 87.2296 395.098 87.3616 395.17Z" fill="#2B303F"/>
<path d="M66.8779 383.338L68.5819 384.322C68.6659 384.364 68.7583 384.385 68.8519 384.385C68.9455 384.385 69.0379 384.364 69.1219 384.322L70.7419 383.374C70.9099 383.29 70.9219 383.146 70.7419 383.062L69.0379 382.078C68.9526 382.034 68.8579 382.011 68.7619 382.011C68.6658 382.011 68.5712 382.034 68.4859 382.078L66.8659 383.014C66.7579 383.122 66.7339 383.266 66.8779 383.338Z" fill="#2B303F"/>
<path d="M64.4661 381.958L66.1701 382.942C66.2541 382.984 66.3465 383.005 66.4401 383.005C66.5337 383.005 66.6261 382.984 66.7101 382.942L68.3421 382.006C68.4981 381.91 68.5221 381.766 68.3421 381.682L66.6381 380.698C66.5532 380.66 66.4612 380.641 66.3681 380.641C66.2751 380.641 66.1831 380.66 66.0981 380.698L64.4661 381.646C64.3461 381.73 64.3341 381.874 64.4661 381.958Z" fill="#2B303F"/>
<path d="M62.0659 380.566L63.7699 381.55C63.853 381.595 63.9457 381.618 64.0399 381.618C64.134 381.618 64.2267 381.595 64.3099 381.55L65.9299 380.614C66.0979 380.518 66.1099 380.374 65.9299 380.302L64.2259 379.318C64.1406 379.274 64.0459 379.251 63.9499 379.251C63.8538 379.251 63.7592 379.274 63.6739 379.318L62.0539 380.254C61.9459 380.398 61.9219 380.482 62.0659 380.566Z" fill="#2B303F"/>
<path d="M59.6541 379.198L61.3581 380.182C61.4413 380.226 61.534 380.249 61.6281 380.249C61.7223 380.249 61.815 380.226 61.8981 380.182L63.5301 379.246C63.6861 379.15 63.7101 379.018 63.5301 378.934L61.8261 377.95C61.743 377.906 61.6503 377.883 61.5561 377.883C61.462 377.883 61.3693 377.906 61.2861 377.95L59.6541 378.886C59.5341 378.958 59.5221 379.09 59.6541 379.198Z" fill="#2B303F"/>
<path d="M84.3379 393.43L86.6659 394.798C86.7499 394.84 86.8422 394.861 86.9359 394.861C87.0295 394.861 87.1218 394.84 87.2058 394.798L88.8258 393.85C88.9938 393.766 89.0058 393.622 88.8258 393.538L86.4979 392.194C86.4129 392.156 86.3209 392.137 86.2279 392.137C86.1348 392.137 86.0428 392.156 85.9579 392.194L84.3259 393.142C84.2179 393.202 84.1939 393.346 84.3379 393.43Z" fill="#2B303F"/>
<path d="M69.2781 384.73L71.6061 386.074C71.6893 386.119 71.782 386.142 71.8761 386.142C71.9703 386.142 72.063 386.119 72.1461 386.074L73.7781 385.138C73.9341 385.042 73.9461 384.898 73.7781 384.826L71.4501 383.482C71.367 383.438 71.2743 383.415 71.1801 383.415C71.086 383.415 70.9933 383.438 70.9101 383.482L69.2781 384.418C69.1581 384.514 69.1461 384.646 69.2781 384.73Z" fill="#2B303F"/>
<path d="M72.302 386.482L83.642 393.022C83.7251 393.066 83.8178 393.089 83.912 393.089C84.0061 393.089 84.0988 393.066 84.182 393.022L85.802 392.086C85.97 391.99 85.982 391.846 85.802 391.774L74.51 385.198C74.426 385.157 74.3336 385.135 74.24 385.135C74.1464 385.135 74.054 385.157 73.97 385.198L72.35 386.146C72.182 386.254 72.17 386.398 72.302 386.482Z" fill="#2B303F"/>
<path d="M92.63 392.806L94.334 393.79C94.4171 393.835 94.5098 393.858 94.604 393.858C94.6981 393.858 94.7908 393.835 94.874 393.79L96.5059 392.854C96.6619 392.77 96.6739 392.626 96.5059 392.542L94.802 391.534C94.7188 391.49 94.6261 391.467 94.532 391.467C94.4378 391.467 94.3451 391.49 94.262 391.534L92.63 392.47C92.51 392.59 92.486 392.734 92.63 392.806Z" fill="#2B303F"/>
<path d="M90.2181 391.414L91.922 392.398C92.0061 392.44 92.0984 392.461 92.192 392.461C92.2857 392.461 92.378 392.44 92.462 392.398L94.094 391.45C94.25 391.366 94.274 391.222 94.094 391.138L92.402 390.142C92.3189 390.098 92.2262 390.075 92.132 390.075C92.0379 390.075 91.9452 390.098 91.8621 390.142L90.2301 391.078C90.0981 391.198 90.0741 391.342 90.2181 391.414Z" fill="#2B303F"/>
<path d="M87.8057 389.998L89.5097 390.982C89.5937 391.024 89.6861 391.045 89.7797 391.045C89.8733 391.045 89.9657 391.024 90.0497 390.982L91.6817 389.998C91.8377 389.914 91.8617 389.77 91.6817 389.686L90.0017 388.798C89.9177 388.757 89.8253 388.736 89.7317 388.736C89.6381 388.736 89.5457 388.757 89.4617 388.798L87.8297 389.734C87.6857 389.806 87.6617 389.998 87.8057 389.998Z" fill="#2B303F"/>
<path d="M85.394 388.63L87.098 389.614C87.182 389.656 87.2743 389.677 87.368 389.677C87.4616 389.677 87.5539 389.656 87.638 389.614L89.27 388.666C89.426 388.582 89.45 388.438 89.27 388.354L87.602 387.358C87.5179 387.317 87.4256 387.296 87.332 387.296C87.2383 387.296 87.146 387.317 87.062 387.358L85.43 388.294C85.274 388.414 85.262 388.558 85.394 388.63Z" fill="#2B303F"/>
<path d="M82.9817 387.251L84.6857 388.235C84.7727 388.273 84.8667 388.293 84.9617 388.293C85.0568 388.293 85.1508 388.273 85.2377 388.235L86.8577 387.287C87.0257 387.203 87.0377 387.059 86.8577 386.975L85.2017 385.967C85.1177 385.925 85.0253 385.904 84.9317 385.904C84.8381 385.904 84.7457 385.925 84.6617 385.967L83.0417 386.903C82.8617 387.023 82.8017 387.167 82.9817 387.251Z" fill="#2B303F"/>
<path d="M80.5822 385.858L82.2862 386.842C82.3711 386.881 82.4631 386.9 82.5562 386.9C82.6492 386.9 82.7412 386.881 82.8262 386.842L84.4462 385.894C84.6142 385.81 84.6262 385.667 84.4462 385.583L82.8022 384.575C82.7152 384.536 82.6212 384.516 82.5262 384.516C82.4311 384.516 82.3371 384.536 82.2502 384.575L80.6302 385.511C80.4022 385.631 80.4022 385.774 80.5822 385.858Z" fill="#2B303F"/>
<path d="M78.1701 384.466L79.8741 385.45C79.959 385.488 80.0511 385.508 80.1441 385.508C80.2372 385.508 80.3292 385.488 80.4141 385.45L82.0341 384.514C82.2021 384.418 82.2141 384.274 82.0341 384.19L80.4021 383.182C80.3152 383.144 80.2212 383.124 80.1261 383.124C80.0311 383.124 79.9371 383.144 79.8501 383.182L78.2301 384.13C78.0021 384.238 78.0021 384.382 78.1701 384.466Z" fill="#2B303F"/>
<path d="M75.7577 383.074L77.4617 384.058C77.5457 384.1 77.6381 384.121 77.7317 384.121C77.8253 384.121 77.9177 384.1 78.0017 384.058L79.6337 383.122C79.7897 383.026 79.8017 382.882 79.6337 382.798L78.0017 381.79C77.9168 381.752 77.8248 381.733 77.7317 381.733C77.6386 381.733 77.5466 381.752 77.4617 381.79L75.8297 382.738C75.6017 382.798 75.6017 382.99 75.7577 383.074Z" fill="#2B303F"/>
<path d="M73.3459 381.682L75.0499 382.666C75.1339 382.708 75.2263 382.729 75.3199 382.729C75.4135 382.729 75.5059 382.708 75.5899 382.666L77.2219 381.73C77.3779 381.634 77.4019 381.49 77.2219 381.406L75.6019 380.398C75.5169 380.36 75.4249 380.341 75.3319 380.341C75.2388 380.341 75.1468 380.36 75.0619 380.398L73.4299 381.346C73.2019 381.454 73.2019 381.598 73.3459 381.682Z" fill="#2B303F"/>
<path d="M70.9342 380.291L72.6381 381.275C72.7222 381.316 72.8145 381.337 72.9081 381.337C73.0018 381.337 73.0941 381.316 73.1781 381.275L74.8101 380.339C74.9661 380.243 74.9901 380.099 74.8101 380.027L73.2021 379.019C73.1181 378.977 73.0258 378.956 72.9321 378.956C72.8385 378.956 72.7462 378.977 72.6621 379.019L71.0302 379.967C70.8022 380.063 70.8022 380.207 70.9342 380.291Z" fill="#2B303F"/>
<path d="M68.5221 378.899L70.2261 379.883C70.3122 379.924 70.4066 379.946 70.5021 379.946C70.5977 379.946 70.692 379.924 70.7781 379.883L72.3981 378.947C72.5541 378.851 72.5781 378.707 72.3981 378.635L70.6941 377.651C70.6101 377.609 70.5178 377.588 70.4241 377.588C70.3305 377.588 70.2382 377.609 70.1541 377.651L68.5341 378.599C68.4021 378.671 68.4021 378.815 68.5221 378.899Z" fill="#2B303F"/>
<path d="M66.1098 377.506L67.8138 378.49C67.8991 378.535 67.9938 378.558 68.0898 378.558C68.1859 378.558 68.2805 378.535 68.3658 378.49L69.9858 377.554C70.1538 377.458 70.1658 377.314 69.9858 377.242L68.2818 376.258C68.1978 376.217 68.1054 376.196 68.0118 376.196C67.9182 376.196 67.8258 376.217 67.7418 376.258L66.1218 377.206C66.0018 377.278 66.0018 377.422 66.1098 377.506Z" fill="#2B303F"/>
<path d="M95.042 394.198L98.558 396.238C98.6433 396.283 98.7379 396.306 98.834 396.306C98.9301 396.306 99.0247 396.283 99.11 396.238L100.73 395.302C100.886 395.206 100.91 395.062 100.73 394.99L97.202 392.926C97.1167 392.882 97.0221 392.859 96.926 392.859C96.8299 392.859 96.7353 392.882 96.65 392.926L95.03 393.862C94.91 393.982 94.898 394.126 95.042 394.198Z" fill="#2B303F"/>
<path d="M91.4898 394.798L93.1938 395.782C93.2778 395.823 93.3702 395.845 93.4638 395.845C93.5574 395.845 93.6498 395.823 93.7338 395.782L95.3538 394.834C95.5218 394.75 95.5338 394.606 95.3538 394.522L93.6978 393.598C93.6117 393.557 93.5174 393.535 93.4218 393.535C93.3263 393.535 93.2319 393.557 93.1458 393.598L91.5258 394.534C91.3578 394.63 91.3458 394.798 91.4898 394.798Z" fill="#2B303F"/>
<path d="M89.0777 393.466L90.7817 394.45C90.8666 394.488 90.9586 394.508 91.0517 394.508C91.1448 394.508 91.2368 394.488 91.3217 394.45L92.9537 393.502C93.1097 393.418 93.1217 393.274 92.9537 393.19L91.2497 392.206C91.1657 392.165 91.0733 392.144 90.9797 392.144C90.8861 392.144 90.7937 392.165 90.7097 392.206L89.0777 393.142C88.9577 393.238 88.9337 393.382 89.0777 393.466Z" fill="#2B303F"/>
<path d="M86.6661 392.074L88.3701 393.058C88.455 393.097 88.547 393.116 88.6401 393.116C88.7332 393.116 88.8252 393.097 88.9101 393.058L90.5421 392.11C90.6981 392.026 90.7221 391.882 90.5421 391.798L88.8381 390.814C88.7541 390.773 88.6617 390.752 88.5681 390.752C88.4745 390.752 88.3821 390.773 88.2981 390.814L86.6661 391.75C86.5461 391.846 86.5221 391.99 86.6661 392.074Z" fill="#2B303F"/>
<path d="M84.2537 390.682L85.9577 391.666C86.0426 391.704 86.1347 391.724 86.2277 391.724C86.3208 391.724 86.4128 391.704 86.4977 391.666L88.1297 390.73C88.2857 390.634 88.3097 390.49 88.1297 390.406L86.4257 389.422C86.3408 389.384 86.2488 389.365 86.1557 389.365C86.0627 389.365 85.9706 389.384 85.8857 389.422L84.2537 390.37C84.1337 390.454 84.1217 390.598 84.2537 390.682Z" fill="#2B303F"/>
<path d="M81.8421 389.29L83.5461 390.274C83.6322 390.316 83.7265 390.337 83.8221 390.337C83.9177 390.337 84.012 390.316 84.0981 390.274L85.7181 389.338C85.8741 389.242 85.8981 389.098 85.7181 389.014L84.0021 388.006C83.9172 387.968 83.8252 387.949 83.7321 387.949C83.639 387.949 83.547 387.968 83.4621 388.006L81.8421 388.954C81.7221 389.062 81.7101 389.206 81.8421 389.29Z" fill="#2B303F"/>
<path d="M79.4296 387.898L81.1456 388.882C81.2296 388.924 81.322 388.945 81.4156 388.945C81.5092 388.945 81.6016 388.924 81.6856 388.882L83.3056 387.946C83.4736 387.85 83.4856 387.706 83.3056 387.634L81.6016 386.626C81.5176 386.585 81.4252 386.564 81.3316 386.564C81.238 386.564 81.1456 386.585 81.0616 386.626L79.4416 387.574C79.3096 387.67 79.2976 387.814 79.4296 387.898Z" fill="#2B303F"/>
<path d="M77.0299 386.506L78.7339 387.49C78.817 387.534 78.9097 387.557 79.0039 387.557C79.098 387.557 79.1907 387.534 79.2739 387.49L80.8939 386.554C81.0619 386.458 81.0739 386.314 80.8939 386.242L79.2019 385.198C79.1158 385.157 79.0214 385.135 78.9259 385.135C78.8303 385.135 78.736 385.157 78.6499 385.198L77.0299 386.146C76.9099 386.278 76.8859 386.398 77.0299 386.506Z" fill="#2B303F"/>
<path d="M74.618 385.115L76.3219 386.099C76.4051 386.143 76.4978 386.166 76.592 386.166C76.6861 386.166 76.7788 386.143 76.862 386.099L78.4939 385.163C78.6499 385.067 78.6619 384.923 78.4939 384.851L76.8019 383.843C76.7188 383.798 76.6261 383.775 76.532 383.775C76.4378 383.775 76.3451 383.798 76.262 383.843L74.63 384.779C74.498 384.899 74.474 385.031 74.618 385.115Z" fill="#2B303F"/>
<path d="M72.2061 383.722L73.9101 384.706C73.9933 384.75 74.086 384.773 74.1801 384.773C74.2743 384.773 74.367 384.75 74.4501 384.706L76.0821 383.77C76.2381 383.674 76.2621 383.53 76.0821 383.458L74.4021 382.45C74.319 382.406 74.2263 382.383 74.1321 382.383C74.038 382.383 73.9453 382.406 73.8621 382.45L72.2301 383.386C72.0861 383.506 72.0621 383.638 72.2061 383.722Z" fill="#2B303F"/>
<path d="M69.7937 382.33L71.4977 383.314C71.5809 383.359 71.6736 383.382 71.7677 383.382C71.8619 383.382 71.9546 383.359 72.0377 383.314L73.6697 382.378C73.8257 382.282 73.8497 382.138 73.6697 382.066L72.0017 381.058C71.9186 381.014 71.8259 380.991 71.7317 380.991C71.6376 380.991 71.5449 381.014 71.4617 381.058L69.8417 381.994C69.6737 382.114 69.6617 382.246 69.7937 382.33Z" fill="#2B303F"/>
<path d="M67.3821 380.939L69.0861 381.923C69.1714 381.967 69.2661 381.99 69.3621 381.99C69.4582 381.99 69.5528 381.967 69.6381 381.923L71.2581 380.987C71.4261 380.891 71.4381 380.759 71.2581 380.675L69.6021 379.667C69.519 379.622 69.4263 379.599 69.3321 379.599C69.238 379.599 69.1453 379.622 69.0621 379.667L67.4421 380.603C67.2621 380.723 67.2021 380.855 67.3821 380.939Z" fill="#2B303F"/>
<path d="M61.9941 377.83L66.6861 380.53C66.7692 380.575 66.8619 380.598 66.9561 380.598C67.0502 380.598 67.1429 380.575 67.2261 380.53L68.8461 379.594C69.0141 379.498 69.0261 379.366 68.8461 379.282L64.1541 376.57C64.0692 376.532 63.9772 376.513 63.8841 376.513C63.791 376.513 63.699 376.532 63.6141 376.57L61.9821 377.518C61.8741 377.602 61.8501 377.746 61.9941 377.83Z" fill="#2B303F"/>
<path d="M93.8901 396.239L96.2181 397.583C96.3012 397.627 96.3939 397.65 96.4881 397.65C96.5822 397.65 96.6749 397.627 96.7581 397.583L98.3901 396.647C98.5461 396.551 98.5701 396.419 98.3901 396.335L96.0621 394.991C95.9789 394.946 95.8862 394.923 95.7921 394.923C95.6979 394.923 95.6052 394.946 95.5221 394.991L93.9021 395.927C93.7701 395.999 93.7581 396.167 93.8901 396.239Z" fill="#2B303F"/>
<path d="M111.794 391.199L73.1177 368.879V338.459L73.4177 337.787L73.7297 337.619C74.138 337.389 74.5989 337.268 75.0677 337.268C75.5365 337.268 75.9973 337.389 76.4057 337.619L111.794 358.019C112.2 358.253 112.537 358.591 112.771 358.998C113.005 359.404 113.127 359.866 113.126 360.335V388.871C112.886 390.383 112.622 390.731 111.794 391.199Z" fill="#E5E5E5"/>
<path d="M108.242 361.739L73.1177 339.479V338.459L73.4177 337.787L73.7297 337.619C74.138 337.389 74.5989 337.268 75.0677 337.268C75.5365 337.268 75.9973 337.389 76.4057 337.619L111.794 358.019C112.225 358.27 112.578 358.635 112.814 359.075L108.242 361.739Z" fill="#E5E5E5"/>
<path d="M74.0058 337.775L111.206 359.219C111.403 359.333 111.568 359.497 111.681 359.695C111.795 359.894 111.855 360.118 111.854 360.347V391.199L73.1178 368.879V338.291C73.1159 338.186 73.1421 338.083 73.1935 337.992C73.2449 337.9 73.3197 337.825 73.4103 337.772C73.5008 337.719 73.6037 337.692 73.7084 337.692C73.8131 337.693 73.9157 337.721 74.0058 337.775Z" fill="#DCEEFF"/>
<path d="M74.0058 337.775L111.206 359.219C111.403 359.333 111.568 359.497 111.681 359.695C111.795 359.894 111.855 360.118 111.854 360.347V391.199L73.1178 368.879V338.291C73.1159 338.186 73.1421 338.083 73.1935 337.992C73.2449 337.9 73.3197 337.825 73.4103 337.772C73.5008 337.719 73.6037 337.692 73.7084 337.692C73.8131 337.693 73.9157 337.721 74.0058 337.775Z" fill="#F4F4F4"/>
<path d="M111.794 391.211V390.107L73.1177 367.775V368.879L111.794 391.211Z" fill="#DBDBDB"/>
<path d="M74.5938 339.647V367.031L110.546 387.731V360.407L74.5938 339.647Z" fill="#1E212D"/>
<path d="M10.3941 364.366C10.0701 367.246 6.63814 379.63 7.38213 383.866C8.12613 388.102 19.8141 395.206 19.8141 395.206L21.4341 388.006L14.9541 381.598L16.7061 369.598L10.3941 364.366Z" fill="#FFCEA9"/>
<path d="M19.4541 352.163C18.3154 351.636 17.0231 351.546 15.8221 351.908C14.6211 352.271 13.595 353.062 12.9381 354.131C11.2101 356.987 9.42211 366.767 9.26611 368.399C9.26611 368.399 11.6661 371.735 15.2661 371.183L19.4541 352.163Z" fill="#EDEDED"/>
<path d="M32.8101 490.27C35.3573 490.971 38.0782 490.639 40.3821 489.346C42.2061 489.346 52.1181 485.17 53.4621 488.722C54.662 491.842 50.3541 494.722 48.0621 495.286C43.0581 496.486 39.3621 498.994 37.3461 499.414C35.8461 499.726 33.9141 499.93 32.7261 498.754C31.2861 497.35 31.4181 492.13 32.8101 490.27Z" fill="#38226D"/>
<path d="M37.3459 498.55C39.3619 498.13 43.0579 495.634 48.0619 494.422C49.9819 493.954 53.2818 491.854 53.6178 489.346C54.0618 492.226 50.1978 494.77 48.0619 495.286C43.0579 496.486 39.3619 498.994 37.3459 499.414C35.8459 499.726 33.9139 499.93 32.7259 498.754C32.4103 498.414 32.1835 498.002 32.0659 497.554C32.808 498.119 33.6716 498.503 34.5882 498.676C35.5047 498.849 36.449 498.805 37.3459 498.55Z" fill="#9C73FF"/>
<path d="M16.8023 483.058C19.3497 483.757 22.0696 483.425 24.3742 482.134C26.1982 482.194 36.0982 477.958 37.4422 481.51C38.6422 484.63 34.3342 487.51 32.0422 488.074C27.0502 489.274 23.3422 491.782 21.3383 492.202C19.8383 492.514 17.9063 492.718 16.7063 491.542C15.2303 490.138 15.3503 484.918 16.8023 483.058Z" fill="#38226D"/>
<path d="M21.2902 491.338C23.2942 490.918 27.0022 488.422 31.9942 487.21C33.9142 486.742 37.2262 484.642 37.5622 482.134C38.0062 485.014 34.1422 487.558 31.9942 488.134C27.0022 489.334 23.2942 491.842 21.2902 492.262C19.7902 492.574 17.8582 492.778 16.6583 491.602C16.3465 491.261 16.1239 490.849 16.0103 490.402C16.7575 490.957 17.6235 491.33 18.5399 491.492C19.4562 491.655 20.3978 491.602 21.2902 491.338Z" fill="#9C73FF"/>
<path d="M16.5623 456.154C16.9843 452.491 17.7476 448.875 18.8423 445.354C18.8423 445.354 18.1583 435.994 17.8223 427.114C17.4263 417.046 13.9343 408.19 16.6943 400.15L47.7621 407.062C47.7621 407.062 45.8902 447.202 45.4702 452.062C45.2392 455.847 44.7744 459.614 44.0782 463.342C42.6622 471.13 40.3582 489.67 40.3582 489.67C37.0702 491.578 32.7502 490.522 32.7502 490.522C32.7502 490.522 32.9902 467.074 33.2062 461.458C33.4582 454.606 33.6742 455.134 33.6742 455.134L32.6422 437.998L31.9702 429.502C31.9702 429.502 31.1062 435.742 30.5542 441.31C30.0622 446.17 28.8862 450.562 27.5782 459.598C26.4502 467.446 24.6022 483.202 24.6022 483.202C21.3142 485.11 16.8503 483.526 16.8503 483.526C16.8503 483.526 15.6743 462.958 16.5623 456.154Z" fill="#1A345D"/>
<path d="M21.098 352.331C23.498 352.451 25.226 353.063 25.514 352.331C25.7738 351.112 25.9542 349.877 26.054 348.635C25.79 347.951 25.55 347.219 25.55 347.219C22.574 345.383 21.638 342.179 21.254 338.435C20.582 332.039 24.038 326.435 30.434 325.775C36.434 325.151 40.8619 329.375 42.0379 335.171C42.6739 338.039 43.9339 343.451 42.2299 348.155C41.2699 350.795 40.046 352.883 38.81 353.291C37.605 353.255 36.4031 353.151 35.21 352.979C35.21 352.979 34.886 354.755 34.67 355.895C34.454 357.035 34.538 357.635 36.806 359.027C39.074 360.419 33.374 363.299 29.606 363.023C25.838 362.747 21.686 360.491 20.546 358.079C19.358 355.415 19.466 352.259 21.098 352.331Z" fill="#FFCEA9"/>
<path d="M24.5183 352.679C23.8583 354.323 25.5263 356.279 29.9783 357.719C34.4303 359.159 34.7783 357.311 34.7783 357.311C37.737 358.637 40.6213 360.123 43.4183 361.763C46.0823 363.635 47.2703 368.962 47.6303 378.13C48.0383 388.678 48.0743 404.314 47.7263 407.014C47.7263 407.014 42.7463 411.982 36.3623 411.454C29.9783 410.926 19.2504 405.286 16.6464 400.93C16.7184 391.69 17.8464 390.13 16.3104 384.85C12.8784 372.67 11.0784 367.678 12.7104 359.579C14.0784 352.895 15.9984 352.067 18.6384 352.139C20.6067 352.212 22.5696 352.392 24.5183 352.679Z" fill="#F4F4F4"/>
<path d="M57.6861 386.855C52.4542 388.175 51.2302 384.863 50.4862 382.139C48.8302 375.515 47.9302 369.539 46.6822 365.783C45.2302 361.355 43.6942 360.647 41.5342 359.783C39.0142 358.775 36.8422 360.911 37.6822 366.551C38.7221 373.078 40.3281 379.502 42.4822 385.751C43.1422 387.815 44.6062 391.475 46.7902 393.251C49.4902 395.435 53.5582 395.339 59.7141 393.803C62.3301 393.155 65.2101 391.583 70.1781 389.267C71.5101 388.643 72.5781 388.235 75.1101 387.047C77.6771 385.889 79.9283 384.132 81.6741 381.923C83.006 379.979 83.186 379.067 82.874 378.623C82.562 378.179 81.9261 378.191 81.2181 379.007C80.1792 380.385 78.9033 381.567 77.4501 382.499C77.4501 382.499 79.0941 380.783 79.9941 379.679C80.7942 378.691 81.46 377.601 81.9741 376.439C82.4421 375.311 81.4701 373.775 80.7741 374.579C80.0781 375.383 79.6701 376.211 78.3741 377.831C77.6699 378.696 76.8642 379.474 75.9741 380.147C76.8172 379.009 77.5676 377.805 78.2181 376.547C78.7936 375.562 79.0766 374.434 79.0341 373.295C79.0341 372.707 78.1581 371.999 77.3661 373.127C76.6081 374.667 75.6651 376.11 74.5581 377.423C73.3581 378.623 72.3501 379.379 72.3141 379.031C72.2781 378.683 73.0461 377.999 73.5141 376.559C73.9821 375.119 73.5141 373.583 72.7221 373.427C71.9301 373.271 72.0741 373.295 71.4261 374.627C70.5428 376.019 69.7414 377.461 69.0261 378.947C68.6226 380.339 67.8853 381.612 66.8781 382.655C65.5101 384.083 62.6661 385.595 57.6861 386.855Z" fill="#FFCEA9"/>
<path d="M39.6019 358.883C43.0938 358.367 45.6018 359.939 47.1138 365.231C48.6258 370.522 49.7298 374.83 49.7298 374.83C48.349 376.83 46.2524 378.222 43.8738 378.718C39.6979 379.738 38.1859 377.734 38.1859 377.734C38.1859 377.734 36.9859 372.191 36.3019 368.411C35.6179 364.631 35.3299 359.519 39.6019 358.883Z" fill="#EDEDED"/>
<path d="M41.8343 334.355C41.8343 334.355 47.3543 325.955 35.3903 324.239C26.7623 323.039 21.2184 328.559 20.5704 334.571C19.9584 340.319 23.4983 346.295 26.0543 348.659C27.2543 349.103 29.9903 349.367 33.5183 347.759C33.6612 346.195 33.7173 344.625 33.6863 343.055C33.6863 343.055 29.4743 334.199 41.8343 334.355Z" fill="#3A2C6D"/>
</svg>
