<svg width="140" height="90" viewBox="0 0 140 90" fill="none" xmlns="http://www.w3.org/2000/svg">
<path d="M2.04 64.536C1.896 64.536 1.768 64.488 1.656 64.392C1.56 64.28 1.512 64.152 1.512 64.008C1.512 63.864 1.56 63.744 1.656 63.648C1.768 63.536 1.896 63.48 2.04 63.48H13.128C13.272 63.48 13.392 63.536 13.488 63.648C13.6 63.744 13.656 63.864 13.656 64.008C13.656 64.152 13.6 64.28 13.488 64.392C13.392 64.488 13.272 64.536 13.128 64.536H8.4C8.256 64.536 8.184 64.608 8.184 64.752V80.4C8.184 80.576 8.12 80.72 7.992 80.832C7.88 80.944 7.744 81 7.584 81C7.424 81 7.28 80.944 7.152 80.832C7.04 80.72 6.984 80.576 6.984 80.4V64.752C6.984 64.608 6.912 64.536 6.768 64.536H2.04ZM22.8478 70.656C22.1118 69.712 21.0318 69.24 19.6078 69.24C18.1838 69.24 17.0958 69.712 16.3438 70.656C15.6078 71.584 15.2398 72.952 15.2398 74.76C15.2398 76.568 15.6078 77.944 16.3438 78.888C17.0958 79.816 18.1838 80.28 19.6078 80.28C21.0318 80.28 22.1118 79.816 22.8478 78.888C23.5998 77.944 23.9758 76.568 23.9758 74.76C23.9758 72.952 23.5998 71.584 22.8478 70.656ZM23.7118 79.56C22.7358 80.68 21.3678 81.24 19.6078 81.24C17.8478 81.24 16.4798 80.68 15.5038 79.56C14.5278 78.424 14.0398 76.824 14.0398 74.76C14.0398 72.696 14.5278 71.104 15.5038 69.984C16.4798 68.848 17.8478 68.28 19.6078 68.28C21.3678 68.28 22.7358 68.848 23.7118 69.984C24.6878 71.104 25.1758 72.696 25.1758 74.76C25.1758 76.824 24.6878 78.424 23.7118 79.56ZM36.2775 70.656C35.5415 69.712 34.4615 69.24 33.0375 69.24C31.6135 69.24 30.5255 69.712 29.7735 70.656C29.0375 71.584 28.6695 72.952 28.6695 74.76C28.6695 76.568 29.0375 77.944 29.7735 78.888C30.5255 79.816 31.6135 80.28 33.0375 80.28C34.4615 80.28 35.5415 79.816 36.2775 78.888C37.0295 77.944 37.4055 76.568 37.4055 74.76C37.4055 72.952 37.0295 71.584 36.2775 70.656ZM37.1415 79.56C36.1655 80.68 34.7975 81.24 33.0375 81.24C31.2775 81.24 29.9095 80.68 28.9335 79.56C27.9575 78.424 27.4695 76.824 27.4695 74.76C27.4695 72.696 27.9575 71.104 28.9335 69.984C29.9095 68.848 31.2775 68.28 33.0375 68.28C34.7975 68.28 36.1655 68.848 37.1415 69.984C38.1175 71.104 38.6055 72.696 38.6055 74.76C38.6055 76.824 38.1175 78.424 37.1415 79.56ZM43.5928 80.832C43.4808 80.944 43.3448 81 43.1848 81C43.0248 81 42.8808 80.944 42.7528 80.832C42.6408 80.72 42.5848 80.576 42.5848 80.4V63.6C42.5848 63.424 42.6408 63.28 42.7528 63.168C42.8808 63.056 43.0248 63 43.1848 63C43.3448 63 43.4808 63.056 43.5928 63.168C43.7208 63.28 43.7848 63.424 43.7848 63.6V80.4C43.7848 80.576 43.7208 80.72 43.5928 80.832ZM52.3984 75.072C50.9104 74.752 49.8464 74.32 49.2064 73.776C48.5664 73.216 48.2464 72.48 48.2464 71.568C48.2464 70.56 48.6224 69.76 49.3744 69.168C50.1424 68.576 51.2064 68.28 52.5664 68.28C53.7344 68.28 54.9024 68.456 56.0704 68.808C56.3904 68.92 56.5504 69.144 56.5504 69.48C56.5504 69.608 56.5024 69.704 56.4064 69.768C56.3104 69.832 56.2064 69.848 56.0944 69.816C54.8944 69.432 53.7424 69.24 52.6384 69.24C51.5984 69.24 50.7984 69.44 50.2384 69.84C49.6784 70.224 49.3984 70.768 49.3984 71.472C49.3984 72.112 49.6224 72.64 50.0704 73.056C50.5184 73.456 51.3424 73.784 52.5424 74.04C54.1584 74.392 55.2944 74.856 55.9504 75.432C56.6224 76.008 56.9584 76.808 56.9584 77.832C56.9584 78.888 56.5584 79.72 55.7584 80.328C54.9744 80.936 53.8704 81.24 52.4464 81.24C51.1664 81.24 49.9664 81.016 48.8464 80.568C48.5264 80.44 48.3664 80.2 48.3664 79.848C48.3664 79.736 48.4144 79.648 48.5104 79.584C48.6224 79.504 48.7344 79.488 48.8464 79.536C49.9984 80.032 51.1664 80.28 52.3504 80.28C53.4544 80.28 54.3024 80.064 54.8944 79.632C55.5024 79.2 55.8064 78.6 55.8064 77.832C55.8064 77.192 55.5664 76.648 55.0864 76.2C54.6224 75.736 53.7264 75.36 52.3984 75.072Z" fill="white"/>
<path d="M11.664 39.12V47.568C11.664 47.856 11.808 48.032 12.096 48.096C12.768 48.224 13.584 48.288 14.544 48.288C16.816 48.288 18.48 47.872 19.536 47.04C20.592 46.176 21.12 44.864 21.12 43.104C21.12 40.16 18.72 38.688 13.92 38.688H12.048C11.792 38.688 11.664 38.832 11.664 39.12ZM11.664 25.392V32.448C11.664 32.704 11.792 32.832 12.048 32.832H13.248C17.92 32.832 20.256 31.44 20.256 28.656C20.256 26 18.304 24.672 14.4 24.672C13.472 24.672 12.688 24.736 12.048 24.864C11.792 24.928 11.664 25.104 11.664 25.392ZM6.336 54.096C5.568 54.032 4.928 53.696 4.416 53.088C3.904 52.48 3.648 51.792 3.648 51.024V21.936C3.648 21.136 3.904 20.448 4.416 19.872C4.96 19.264 5.616 18.928 6.384 18.864C8.88 18.608 11.328 18.48 13.728 18.48C23.008 18.48 27.648 21.472 27.648 27.456C27.648 29.472 26.992 31.184 25.68 32.592C24.4 34 22.672 34.896 20.496 35.28C20.464 35.28 20.448 35.312 20.448 35.376C20.448 35.408 20.48 35.424 20.544 35.424C23.072 35.776 25.072 36.736 26.544 38.304C28.048 39.872 28.8 41.744 28.8 43.92C28.8 47.472 27.616 50.128 25.248 51.888C22.912 53.616 19.232 54.48 14.208 54.48C11.68 54.48 9.056 54.352 6.336 54.096ZM49.5293 54.48C44.1533 54.48 39.8493 52.896 36.6172 49.728C33.3853 46.528 31.7693 42.112 31.7693 36.48C31.7693 30.816 33.3533 26.4 36.5213 23.232C39.6893 20.064 44.1373 18.48 49.8653 18.48C52.2333 18.48 54.5213 18.672 56.7292 19.056C57.4973 19.184 58.1213 19.568 58.6013 20.208C59.1133 20.816 59.3693 21.52 59.3693 22.32V23.616C59.3693 24.288 59.0973 24.832 58.5533 25.248C58.0093 25.664 57.4013 25.792 56.7292 25.632C54.7453 25.184 52.7773 24.96 50.8253 24.96C43.6573 24.96 40.0733 28.8 40.0733 36.48C40.0733 40.32 40.9213 43.2 42.6172 45.12C44.3453 47.04 46.8093 48 50.0093 48C51.0013 48 52.0093 47.872 53.0333 47.616C53.3213 47.552 53.4653 47.376 53.4653 47.088V39.264C53.4653 39.008 53.3213 38.88 53.0333 38.88H48.5693C47.8333 38.88 47.1933 38.608 46.6493 38.064C46.1053 37.52 45.8333 36.88 45.8333 36.144V35.424C45.8333 34.688 46.1053 34.048 46.6493 33.504C47.1933 32.96 47.8333 32.688 48.5693 32.688H58.5052C59.2413 32.688 59.8653 32.96 60.3773 33.504C60.9213 34.048 61.1933 34.688 61.1933 35.424V49.776C61.1933 50.608 60.9533 51.36 60.4733 52.032C59.9933 52.672 59.3693 53.104 58.6013 53.328C55.7213 54.096 52.6973 54.48 49.5293 54.48ZM76.2578 25.392V35.856C76.2578 36.08 76.4018 36.224 76.6898 36.288C77.7778 36.416 78.6418 36.48 79.2818 36.48C81.5858 36.48 83.3618 35.952 84.6098 34.896C85.8898 33.808 86.5298 32.304 86.5298 30.384C86.5298 26.576 84.1138 24.672 79.2818 24.672C78.4818 24.672 77.6018 24.752 76.6418 24.912C76.3858 24.976 76.2578 25.136 76.2578 25.392ZM70.9778 54C70.2418 54 69.6018 53.728 69.0578 53.184C68.5138 52.64 68.2418 52 68.2418 51.264V21.936C68.2418 21.168 68.4978 20.48 69.0098 19.872C69.5218 19.264 70.1618 18.928 70.9297 18.864C73.6498 18.608 76.2738 18.48 78.8018 18.48C89.0418 18.48 94.1618 22.288 94.1618 29.904C94.1618 34.032 92.9618 37.168 90.5618 39.312C88.1938 41.424 84.7058 42.48 80.0978 42.48C78.8818 42.48 77.7458 42.432 76.6898 42.336C76.4018 42.336 76.2578 42.464 76.2578 42.72V51.264C76.2578 52 75.9858 52.64 75.4418 53.184C74.8978 53.728 74.2578 54 73.5218 54H70.9778Z" fill="#1A345D"/>
</svg>
