<svg width="70" height="55" viewBox="0 0 70 55" fill="none" xmlns="http://www.w3.org/2000/svg">
<path d="M1.19 39.396C1.106 39.396 1.03133 39.368 0.966 39.312C0.91 39.2467 0.882 39.172 0.882 39.088C0.882 39.004 0.91 38.934 0.966 38.878C1.03133 38.8127 1.106 38.78 1.19 38.78H7.658C7.742 38.78 7.812 38.8127 7.868 38.878C7.93333 38.934 7.966 39.004 7.966 39.088C7.966 39.172 7.93333 39.2467 7.868 39.312C7.812 39.368 7.742 39.396 7.658 39.396H4.9C4.816 39.396 4.774 39.438 4.774 39.522V48.65C4.774 48.7527 4.73667 48.8367 4.662 48.902C4.59667 48.9673 4.51733 49 4.424 49C4.33067 49 4.24667 48.9673 4.172 48.902C4.10667 48.8367 4.074 48.7527 4.074 48.65V39.522C4.074 39.438 4.032 39.396 3.948 39.396H1.19ZM13.3279 42.966C12.8986 42.4153 12.2686 42.14 11.4379 42.14C10.6072 42.14 9.97256 42.4153 9.53389 42.966C9.10456 43.5073 8.88989 44.3053 8.88989 45.36C8.88989 46.4147 9.10456 47.2173 9.53389 47.768C9.97256 48.3093 10.6072 48.58 11.4379 48.58C12.2686 48.58 12.8986 48.3093 13.3279 47.768C13.7666 47.2173 13.9859 46.4147 13.9859 45.36C13.9859 44.3053 13.7666 43.5073 13.3279 42.966ZM13.8319 48.16C13.2626 48.8133 12.4646 49.14 11.4379 49.14C10.4112 49.14 9.61322 48.8133 9.04389 48.16C8.47456 47.4973 8.18989 46.564 8.18989 45.36C8.18989 44.156 8.47456 43.2273 9.04389 42.574C9.61322 41.9113 10.4112 41.58 11.4379 41.58C12.4646 41.58 13.2626 41.9113 13.8319 42.574C14.4012 43.2273 14.6859 44.156 14.6859 45.36C14.6859 46.564 14.4012 47.4973 13.8319 48.16ZM21.1619 42.966C20.7325 42.4153 20.1025 42.14 19.2719 42.14C18.4412 42.14 17.8065 42.4153 17.3679 42.966C16.9385 43.5073 16.7239 44.3053 16.7239 45.36C16.7239 46.4147 16.9385 47.2173 17.3679 47.768C17.8065 48.3093 18.4412 48.58 19.2719 48.58C20.1025 48.58 20.7325 48.3093 21.1619 47.768C21.6005 47.2173 21.8199 46.4147 21.8199 45.36C21.8199 44.3053 21.6005 43.5073 21.1619 42.966ZM21.6659 48.16C21.0965 48.8133 20.2985 49.14 19.2719 49.14C18.2452 49.14 17.4472 48.8133 16.8779 48.16C16.3085 47.4973 16.0239 46.564 16.0239 45.36C16.0239 44.156 16.3085 43.2273 16.8779 42.574C17.4472 41.9113 18.2452 41.58 19.2719 41.58C20.2985 41.58 21.0965 41.9113 21.6659 42.574C22.2352 43.2273 22.5199 44.156 22.5199 45.36C22.5199 46.564 22.2352 47.4973 21.6659 48.16ZM25.4291 48.902C25.3638 48.9673 25.2845 49 25.1911 49C25.0978 49 25.0138 48.9673 24.9391 48.902C24.8738 48.8367 24.8411 48.7527 24.8411 48.65V38.85C24.8411 38.7473 24.8738 38.6633 24.9391 38.598C25.0138 38.5327 25.0978 38.5 25.1911 38.5C25.2845 38.5 25.3638 38.5327 25.4291 38.598C25.5038 38.6633 25.5411 38.7473 25.5411 38.85V48.65C25.5411 48.7527 25.5038 48.8367 25.4291 48.902ZM30.5657 45.542C29.6977 45.3553 29.0771 45.1033 28.7037 44.786C28.3304 44.4593 28.1437 44.03 28.1437 43.498C28.1437 42.91 28.3631 42.4433 28.8017 42.098C29.2497 41.7527 29.8704 41.58 30.6637 41.58C31.3451 41.58 32.0264 41.6827 32.7077 41.888C32.8944 41.9533 32.9877 42.084 32.9877 42.28C32.9877 42.3547 32.9597 42.4107 32.9037 42.448C32.8477 42.4853 32.7871 42.4947 32.7217 42.476C32.0217 42.252 31.3497 42.14 30.7057 42.14C30.0991 42.14 29.6324 42.2567 29.3057 42.49C28.9791 42.714 28.8157 43.0313 28.8157 43.442C28.8157 43.8153 28.9464 44.1233 29.2077 44.366C29.4691 44.5993 29.9497 44.7907 30.6497 44.94C31.5924 45.1453 32.2551 45.416 32.6377 45.752C33.0297 46.088 33.2257 46.5547 33.2257 47.152C33.2257 47.768 32.9924 48.2533 32.5257 48.608C32.0684 48.9627 31.4244 49.14 30.5937 49.14C29.8471 49.14 29.1471 49.0093 28.4937 48.748C28.3071 48.6733 28.2137 48.5333 28.2137 48.328C28.2137 48.2627 28.2417 48.2113 28.2977 48.174C28.3631 48.1273 28.4284 48.118 28.4937 48.146C29.1657 48.4353 29.8471 48.58 30.5377 48.58C31.1817 48.58 31.6764 48.454 32.0217 48.202C32.3764 47.95 32.5537 47.6 32.5537 47.152C32.5537 46.7787 32.4137 46.4613 32.1337 46.2C31.8631 45.9293 31.3404 45.71 30.5657 45.542Z" fill="white"/>
<path d="M7.29 24.7V29.98C7.29 30.16 7.38 30.27 7.56 30.31C7.98 30.39 8.49 30.43 9.09 30.43C10.51 30.43 11.55 30.17 12.21 29.65C12.87 29.11 13.2 28.29 13.2 27.19C13.2 25.35 11.7 24.43 8.7 24.43H7.53C7.37 24.43 7.29 24.52 7.29 24.7ZM7.29 16.12V20.53C7.29 20.69 7.37 20.77 7.53 20.77H8.28C11.2 20.77 12.66 19.9 12.66 18.16C12.66 16.5 11.44 15.67 9 15.67C8.42 15.67 7.93 15.71 7.53 15.79C7.37 15.83 7.29 15.94 7.29 16.12ZM3.96 34.06C3.48 34.02 3.08 33.81 2.76 33.43C2.44 33.05 2.28 32.62 2.28 32.14V13.96C2.28 13.46 2.44 13.03 2.76 12.67C3.1 12.29 3.51 12.08 3.99 12.04C5.55 11.88 7.08 11.8 8.58 11.8C14.38 11.8 17.28 13.67 17.28 17.41C17.28 18.67 16.87 19.74 16.05 20.62C15.25 21.5 14.17 22.06 12.81 22.3C12.79 22.3 12.78 22.32 12.78 22.36C12.78 22.38 12.8 22.39 12.84 22.39C14.42 22.61 15.67 23.21 16.59 24.19C17.53 25.17 18 26.34 18 27.7C18 29.92 17.26 31.58 15.78 32.68C14.32 33.76 12.02 34.3 8.88 34.3C7.3 34.3 5.66 34.22 3.96 34.06ZM30.9558 34.3C27.5958 34.3 24.9058 33.31 22.8858 31.33C20.8658 29.33 19.8558 26.57 19.8558 23.05C19.8558 19.51 20.8458 16.75 22.8258 14.77C24.8058 12.79 27.5858 11.8 31.1658 11.8C32.6458 11.8 34.0758 11.92 35.4558 12.16C35.9358 12.24 36.3258 12.48 36.6258 12.88C36.9458 13.26 37.1058 13.7 37.1058 14.2V15.01C37.1058 15.43 36.9358 15.77 36.5958 16.03C36.2558 16.29 35.8758 16.37 35.4558 16.27C34.2158 15.99 32.9858 15.85 31.7658 15.85C27.2858 15.85 25.0458 18.25 25.0458 23.05C25.0458 25.45 25.5758 27.25 26.6358 28.45C27.7158 29.65 29.2558 30.25 31.2558 30.25C31.8758 30.25 32.5058 30.17 33.1458 30.01C33.3258 29.97 33.4158 29.86 33.4158 29.68V24.79C33.4158 24.63 33.3258 24.55 33.1458 24.55H30.3558C29.8958 24.55 29.4958 24.38 29.1558 24.04C28.8158 23.7 28.6458 23.3 28.6458 22.84V22.39C28.6458 21.93 28.8158 21.53 29.1558 21.19C29.4958 20.85 29.8958 20.68 30.3558 20.68H36.5658C37.0258 20.68 37.4158 20.85 37.7358 21.19C38.0758 21.53 38.2458 21.93 38.2458 22.39V31.36C38.2458 31.88 38.0958 32.35 37.7958 32.77C37.4958 33.17 37.1058 33.44 36.6258 33.58C34.8258 34.06 32.9358 34.3 30.9558 34.3ZM47.6611 16.12V22.66C47.6611 22.8 47.7511 22.89 47.9311 22.93C48.6111 23.01 49.1511 23.05 49.5511 23.05C50.9911 23.05 52.1011 22.72 52.8811 22.06C53.6811 21.38 54.0811 20.44 54.0811 19.24C54.0811 16.86 52.5711 15.67 49.5511 15.67C49.0511 15.67 48.5011 15.72 47.9011 15.82C47.7411 15.86 47.6611 15.96 47.6611 16.12ZM44.3611 34C43.9011 34 43.5011 33.83 43.1611 33.49C42.8211 33.15 42.6511 32.75 42.6511 32.29V13.96C42.6511 13.48 42.8111 13.05 43.1311 12.67C43.4511 12.29 43.8511 12.08 44.3311 12.04C46.0311 11.88 47.6711 11.8 49.2511 11.8C55.6511 11.8 58.8511 14.18 58.8511 18.94C58.8511 21.52 58.1011 23.48 56.6011 24.82C55.1211 26.14 52.9411 26.8 50.0611 26.8C49.3011 26.8 48.5911 26.77 47.9311 26.71C47.7511 26.71 47.6611 26.79 47.6611 26.95V32.29C47.6611 32.75 47.4911 33.15 47.1511 33.49C46.8111 33.83 46.4111 34 45.9511 34H44.3611Z" fill="white"/>
</svg>
