<svg width="20" height="19" viewBox="0 0 20 19" fill="none" xmlns="http://www.w3.org/2000/svg">
<path d="M17.2522 0C15.7372 0 14.5046 1.23327 14.5046 2.74923C14.5046 2.95084 14.527 3.14734 14.5684 3.33677L11.0421 5.10114C10.5378 4.51771 9.79354 4.14734 8.96391 4.14734C7.44882 4.14734 6.21623 5.38061 6.21623 6.89657C6.21623 8.41253 7.44882 9.64579 8.96391 9.64579C9.17919 9.64579 9.38855 9.62007 9.5897 9.573L11.2774 12.1065C10.715 12.6102 10.3603 13.3415 10.3603 14.1543C10.3603 14.3104 10.3741 14.4634 10.3992 14.6124L5.38242 15.4491C5.04586 14.3114 3.99246 13.4788 2.74774 13.4788C1.23266 13.4788 0 14.712 0 16.2279C0 17.744 1.23266 18.9772 2.74774 18.9772C4.06296 18.9772 5.16478 18.0476 5.43273 16.8106L10.9759 15.8861C11.4801 16.5063 12.2484 16.9035 13.1079 16.9035C14.6232 16.9035 15.8559 15.6702 15.8559 14.1543C15.8559 12.6385 14.6232 11.4052 13.1079 11.4052C12.8927 11.4052 12.6834 11.431 12.4823 11.478L10.7946 8.94445C11.357 8.44067 11.7116 7.70943 11.7116 6.89657C11.7116 6.69495 11.6892 6.49852 11.6478 6.30916L15.1741 4.54471C15.6783 5.12822 16.4226 5.49859 17.2522 5.49859C18.7673 5.49859 20 4.26525 20 2.74923C20 1.23327 18.7673 0 17.2522 0ZM2.74774 17.626C1.97771 17.626 1.35131 16.9989 1.35131 16.2279C1.35131 15.4571 1.97778 14.83 2.74774 14.83C3.51771 14.83 4.14411 15.4571 4.14411 16.2279C4.14411 16.9988 3.51771 17.626 2.74774 17.626ZM14.5046 14.1543C14.5046 14.9252 13.8781 15.5523 13.108 15.5523C12.338 15.5523 11.7116 14.9253 11.7116 14.1543C11.7116 13.3836 12.338 12.7564 13.108 12.7564C13.8781 12.7564 14.5046 13.3836 14.5046 14.1543ZM7.56754 6.89657C7.56754 6.12572 8.19394 5.49859 8.96391 5.49859C9.73387 5.49859 10.3603 6.12572 10.3603 6.89657C10.3603 7.66741 9.73387 8.29455 8.96391 8.29455C8.19394 8.29455 7.56754 7.66741 7.56754 6.89657ZM17.2522 4.14734C16.4822 4.14734 15.8559 3.52013 15.8559 2.74923C15.8559 1.97838 16.4823 1.35125 17.2522 1.35125C18.0223 1.35125 18.6487 1.97832 18.6487 2.74923C18.6488 3.52007 18.0223 4.14734 17.2522 4.14734Z" fill="#495057"/>
</svg>
