<svg width="34" height="32" viewBox="0 0 34 32" fill="none" xmlns="http://www.w3.org/2000/svg">
<path d="M0 2.08333C0 1.5308 0.219494 1.0009 0.610195 0.610195C1.0009 0.219494 1.5308 0 2.08333 0H31.25C31.8025 0 32.3324 0.219494 32.7231 0.610195C33.1138 1.0009 33.3333 1.5308 33.3333 2.08333C33.3333 2.63587 33.1138 3.16577 32.7231 3.55647C32.3324 3.94717 31.8025 4.16667 31.25 4.16667H2.08333C1.5308 4.16667 1.0009 3.94717 0.610195 3.55647C0.219494 3.16577 0 2.63587 0 2.08333ZM0 10.4167C0 9.86413 0.219494 9.33423 0.610195 8.94353C1.0009 8.55283 1.5308 8.33333 2.08333 8.33333H31.25C31.8025 8.33333 32.3324 8.55283 32.7231 8.94353C33.1138 9.33423 33.3333 9.86413 33.3333 10.4167C33.3333 10.9692 33.1138 11.4991 32.7231 11.8898C32.3324 12.2805 31.8025 12.5 31.25 12.5H2.08333C1.5308 12.5 1.0009 12.2805 0.610195 11.8898C0.219494 11.4991 0 10.9692 0 10.4167ZM0 18.75C0 18.1975 0.219494 17.6676 0.610195 17.2769C1.0009 16.8862 1.5308 16.6667 2.08333 16.6667H12.5C13.0525 16.6667 13.5824 16.8862 13.9731 17.2769C14.3638 17.6676 14.5833 18.1975 14.5833 18.75C14.5833 19.3025 14.3638 19.8324 13.9731 20.2231C13.5824 20.6138 13.0525 20.8333 12.5 20.8333H2.08333C1.5308 20.8333 1.0009 20.6138 0.610195 20.2231C0.219494 19.8324 0 19.3025 0 18.75ZM0 27.0833C0 26.5308 0.219494 26.0009 0.610195 25.6102C1.0009 25.2195 1.5308 25 2.08333 25H12.5C13.0525 25 13.5824 25.2195 13.9731 25.6102C14.3638 26.0009 14.5833 26.5308 14.5833 27.0833C14.5833 27.6359 14.3638 28.1658 13.9731 28.5565C13.5824 28.9472 13.0525 29.1667 12.5 29.1667H2.08333C1.5308 29.1667 1.0009 28.9472 0.610195 28.5565C0.219494 28.1658 0 27.6359 0 27.0833ZM23.9583 18.75C23.1295 18.75 22.3347 19.0792 21.7486 19.6653C21.1626 20.2513 20.8333 21.0462 20.8333 21.875C20.8333 22.7038 21.1626 23.4987 21.7486 24.0847C22.3347 24.6708 23.1295 25 23.9583 25C24.7871 25 25.582 24.6708 26.168 24.0847C26.7541 23.4987 27.0833 22.7038 27.0833 21.875C27.0833 21.0462 26.7541 20.2513 26.168 19.6653C25.582 19.0792 24.7871 18.75 23.9583 18.75V18.75ZM16.6667 21.875C16.6675 20.7656 16.9214 19.671 17.4092 18.6746C17.8969 17.6782 18.6056 16.8062 19.4813 16.125C20.357 15.4438 21.3765 14.9715 22.4623 14.7439C23.5481 14.5162 24.6715 14.5394 25.747 14.8115C26.8225 15.0837 27.8218 15.5976 28.6686 16.3143C29.5155 17.031 30.1877 17.9314 30.634 18.9471C31.0802 19.9627 31.2889 21.0669 31.244 22.1753C31.1992 23.2838 30.9019 24.3675 30.375 25.3438L32.7229 27.6937C33.1024 28.0867 33.3124 28.6129 33.3077 29.1592C33.3029 29.7054 33.0838 30.2279 32.6975 30.6142C32.3113 31.0005 31.7887 31.2196 31.2425 31.2243C30.6963 31.2291 30.17 31.0191 29.7771 30.6396L27.4271 28.2896C26.3163 28.8903 25.0685 29.1923 23.806 29.1659C22.5434 29.1395 21.3094 28.7857 20.2246 28.1391C19.1399 27.4924 18.2417 26.5752 17.618 25.4771C16.9944 24.379 16.6665 23.1378 16.6667 21.875V21.875Z" fill="#495057"/>
</svg>
