<svg width="30" height="30" viewBox="0 0 30 30" fill="none" xmlns="http://www.w3.org/2000/svg">
<path d="M24.5833 0C26.0199 0 27.3977 0.570683 28.4135 1.5865C29.4293 2.60233 30 3.98008 30 5.41667V24.5833C30 26.0199 29.4293 27.3977 28.4135 28.4135C27.3977 29.4293 26.0199 30 24.5833 30H5.41667C3.98008 30 2.60233 29.4293 1.5865 28.4135C0.570683 27.3977 0 26.0199 0 24.5833V5.41667C0 3.98008 0.570683 2.60233 1.5865 1.5865C2.60233 0.570683 3.98008 0 5.41667 0H24.5833ZM24.5833 2.5H5.41667C4.64312 2.5 3.90125 2.80729 3.35427 3.35427C2.80729 3.90125 2.5 4.64312 2.5 5.41667V24.5833C2.5 26.1933 3.80667 27.5 5.41667 27.5H24.5833C25.3569 27.5 26.0987 27.1927 26.6457 26.6457C27.1927 26.0987 27.5 25.3569 27.5 24.5833V5.41667C27.5 4.64312 27.1927 3.90125 26.6457 3.35427C26.0987 2.80729 25.3569 2.5 24.5833 2.5ZM13.3333 7.08333C14.4626 7.0831 15.5709 7.38885 16.5403 7.96809C17.5098 8.54732 18.3041 9.37839 18.839 10.373C19.3739 11.3676 19.6294 12.4885 19.5782 13.6166C19.527 14.7448 19.1711 15.8379 18.5483 16.78L22.55 20.7833C22.7716 21.0067 22.9008 21.3053 22.9119 21.6198C22.923 21.9342 22.8151 22.2412 22.6097 22.4796C22.4044 22.718 22.1167 22.8701 21.8041 22.9057C21.4915 22.9413 21.177 22.8578 20.9233 22.6717L20.7833 22.55L16.78 18.5483C15.9669 19.0854 15.0395 19.4249 14.0718 19.5398C13.1041 19.6546 12.123 19.5416 11.2068 19.2097C10.2906 18.8779 9.46464 18.3364 8.79497 17.6285C8.12529 16.9206 7.63042 16.0659 7.34987 15.1327C7.06932 14.1995 7.01088 13.2136 7.1792 12.2538C7.34751 11.294 7.73794 10.3868 8.31928 9.60473C8.90063 8.82266 9.65679 8.18737 10.5274 7.74958C11.398 7.31179 12.3589 7.08363 13.3333 7.08333ZM13.3333 9.58333C12.8409 9.58333 12.3532 9.68033 11.8983 9.86878C11.4433 10.0572 11.0299 10.3335 10.6817 10.6817C10.3335 11.0299 10.0572 11.4433 9.86878 11.8983C9.68033 12.3532 9.58333 12.8409 9.58333 13.3333C9.58333 13.8258 9.68033 14.3134 9.86878 14.7684C10.0572 15.2234 10.3335 15.6368 10.6817 15.985C11.0299 16.3332 11.4433 16.6094 11.8983 16.7979C12.3532 16.9863 12.8409 17.0833 13.3333 17.0833C14.3279 17.0833 15.2817 16.6882 15.985 15.985C16.6882 15.2817 17.0833 14.3279 17.0833 13.3333C17.0833 12.3388 16.6882 11.3849 15.985 10.6817C15.2817 9.97842 14.3279 9.58333 13.3333 9.58333Z" fill="#495057"/>
</svg>
